<svg width="75" height="74" fill="none" xmlns="http://www.w3.org/2000/svg"><g clip-path="url(#clip0)" fill="#56ABF7"><path d="M60.297 51.326c-.294 0-.587-.108-.816-.325l-13.73-12.88a1.192 1.192 0 01-.053-1.685 1.188 1.188 0 011.687-.052l13.73 12.88a1.192 1.192 0 01-.818 2.062zm-45.833.001a1.194 1.194 0 01-.819-2.062l13.735-12.88a1.192 1.192 0 111.635 1.737L15.28 51.002a1.18 1.18 0 01-.816.325z"/><path d="M68.413 63.302H6.344A5.972 5.972 0 01.38 57.337V16.66a5.972 5.972 0 015.965-5.966h62.07a5.972 5.972 0 015.965 5.966v40.677a5.972 5.972 0 01-5.966 5.965zM6.344 13.081a3.584 3.584 0 00-3.579 3.579v40.677a3.584 3.584 0 003.58 3.58h62.069a3.584 3.584 0 003.579-3.58V16.66a3.584 3.584 0 00-3.58-3.58H6.344z"/><path d="M37.378 42.994c-1.587 0-3.173-.528-4.38-1.58L2.357 14.687a1.196 1.196 0 01-.116-1.685 1.2 1.2 0 011.684-.115l30.639 26.725c1.525 1.33 4.102 1.33 5.624 0l30.6-26.682a1.194 1.194 0 011.57 1.8l-30.6 26.682c-1.21 1.054-2.794 1.582-4.38 1.582z"/></g><defs><clipPath id="clip0"><path fill="#fff" transform="translate(.379)" d="M0 0h74v74H0z"/></clipPath></defs></svg>