<svg width="49" height="50" fill="none" xmlns="http://www.w3.org/2000/svg"><circle cx="24.5" cy="24.73" r="24.5" fill="#56ABF7"/><path d="M17.05 15.512h-2.693a.232.232 0 00-.232.232V35.46c0 .128.104.231.232.231h20.286a.232.232 0 00.232-.231V15.744a.232.232 0 00-.232-.232h-2.686m-11.896 0h8.874m-14.81 4.589h20.75m-17.912 5.935h15.074m-15.074 3.395h15.074M20.39 22.447v10.435m3.905-10.435v10.435m3.999-10.435v10.435M17.195 17.42h2.687a.232.232 0 00.232-.232v-3.186a.232.232 0 00-.232-.231h-2.687a.232.232 0 00-.232.231v3.186c0 .128.104.232.232.232zm11.922 0h2.688a.232.232 0 00.232-.232v-3.186a.232.232 0 00-.232-.231h-2.688a.232.232 0 00-.232.231v3.186c0 .128.104.232.232.232zm-12.154 5.028h15.074v10.435H16.963V22.447z" stroke="#FCFCFC" stroke-width="1.2"/></svg>