<svg width="71" height="71" fill="none" xmlns="http://www.w3.org/2000/svg"><rect x=".5" y=".805" width="70" height="70" rx="5" fill="#56ABF7"/><path d="M35.588 47.237c-1.608 0-3.024-.336-4.248-1.008a7.8 7.8 0 01-2.916-2.736c-.696-1.176-1.224-2.484-1.584-3.924-.336-1.464-.504-3.036-.504-4.716 0-2.256.336-4.296 1.008-6.12.672-1.824 1.752-3.324 3.24-4.5 1.512-1.2 3.348-1.8 5.508-1.8 2.76 0 4.98.96 6.66 2.88l-1.512 2.232c-1.392-1.632-3.108-2.448-5.148-2.448-1.488 0-2.76.468-3.816 1.404-1.032.936-1.788 2.1-2.268 3.492-.456 1.368-.684 2.88-.684 4.536 0 .408.012.72.036.936.6-.96 1.524-1.824 2.772-2.592 1.272-.768 2.616-1.152 4.032-1.152 2.28 0 4.152.672 5.616 2.016 1.488 1.32 2.232 3.204 2.232 5.652 0 2.184-.768 4.044-2.304 5.58-1.536 1.512-3.576 2.268-6.12 2.268zm-.108-2.664c1.728 0 3.072-.516 4.032-1.548.984-1.056 1.476-2.232 1.476-3.528 0-1.68-.516-2.964-1.548-3.852-1.032-.888-2.364-1.332-3.996-1.332-1.176 0-2.304.336-3.384 1.008a7.756 7.756 0 00-2.628 2.592c.168 1.776.744 3.336 1.728 4.68.984 1.32 2.424 1.98 4.32 1.98z" fill="#FCFCFC"/></svg>