<svg width="71" height="71" fill="none" xmlns="http://www.w3.org/2000/svg"><rect x=".5" y=".805" width="70" height="70" rx="5" fill="#56ABF7"/><g clip-path="url(#clip0)" fill="#FCFCFC"><path d="M33.76 43.649a.86.86 0 00-1.216-1.216.86.86 0 001.216 1.216zm-4.065-20.394c0 5.211 4.24 9.45 9.45 9.45 5.212 0 9.451-4.239 9.451-9.45 0-5.21-4.24-9.45-9.45-9.45-5.211 0-9.45 4.24-9.45 9.45zm17.183 0c0 4.264-3.469 7.733-7.732 7.733-4.264 0-7.733-3.47-7.733-7.733s3.47-7.732 7.733-7.732 7.732 3.469 7.732 7.732z"/><path d="M23.439 57.55a.859.859 0 001.212.008l4.166-4.104a2.596 2.596 0 00.611-2.666l.896-.864a2.562 2.562 0 011.79-.723h11.42a7.692 7.692 0 005.394-2.191c.06-.058-.454.547 7.791-9.308a3.44 3.44 0 00-.408-4.844 3.445 3.445 0 00-4.821.384l-5.07 5.21a3.453 3.453 0 00-2.67-1.279h-9.581a11.085 11.085 0 00-4.302-.859c-4.137 0-7.75 1.91-9.689 5.493a2.566 2.566 0 00-2.297.712l-4.087 4.1a.86.86 0 00-.002 1.212l9.647 9.72zm6.427-19.518c1.316 0 2.589.265 3.783.788a.858.858 0 00.344.072h9.756c.932 0 1.719.76 1.719 1.718a1.72 1.72 0 01-1.719 1.718h-7.01a.86.86 0 000 1.718h7.01a3.44 3.44 0 003.407-3.885c4.904-5.042 5.595-5.75 5.625-5.785a1.724 1.724 0 012.422-.205 1.72 1.72 0 01.201 2.425L47.7 45.808a5.983 5.983 0 01-4.165 1.675h-11.42c-1.12 0-2.18.428-2.983 1.205l-.73.704-6.731-6.73c1.573-2.951 4.525-4.63 8.196-4.63zm-10.77 5.702a.857.857 0 011.064-.121c.15.09-.278-.298 7.442 7.41a.86.86 0 01.004 1.211l-3.55 3.499-8.442-8.506 3.483-3.493zM38.117 18.1v1.006a2.581 2.581 0 00-1.718 2.43 2.58 2.58 0 002.577 2.578.86.86 0 010 1.718c-.367 0-.763-.231-1.115-.65a.86.86 0 00-1.316 1.106c.46.546 1 .926 1.572 1.118v1.003a.859.859 0 101.718 0v-1.007c1-.355 1.719-1.31 1.719-2.43a2.58 2.58 0 00-2.578-2.577.86.86 0 010-1.718c.305 0 .626.155.93.449A.86.86 0 0041.1 19.89a3.32 3.32 0 00-1.265-.79v-1a.86.86 0 10-1.718 0z"/></g><defs><clipPath id="clip0"><path fill="#fff" transform="translate(13.5 13.805)" d="M0 0h43.914v44H0z"/></clipPath></defs></svg>