<svg width="71" height="71" fill="none" xmlns="http://www.w3.org/2000/svg"><rect x=".5" y=".805" width="70" height="70" rx="5" fill="#56ABF7"/><path d="M31.932 46.805H15.444v-2.376c2.496-1.968 4.428-3.528 5.796-4.68a58.443 58.443 0 003.996-3.708c1.296-1.32 2.208-2.484 2.736-3.492.528-1.032.792-2.052.792-3.06 0-1.44-.492-2.532-1.476-3.276-.984-.744-2.16-1.116-3.528-1.116-2.76 0-4.932 1.008-6.516 3.024l-1.836-1.908c.912-1.2 2.1-2.124 3.564-2.772 1.488-.672 3.084-1.008 4.788-1.008 2.184 0 4.068.612 5.652 1.836 1.608 1.224 2.412 2.964 2.412 5.22 0 2.232-.96 4.464-2.88 6.696-1.92 2.208-4.848 4.86-8.784 7.956h11.772v2.664zm18.284 0h-2.988V40.72H35.816v-2.484l10.296-15.444h4.104v15.3H53.6v2.628h-3.384v6.084zm-2.988-8.712V25.565l-8.424 12.528h8.424z" fill="#FCFCFC"/></svg>