<svg width="71" height="71" fill="none" xmlns="http://www.w3.org/2000/svg"><path d="M.5 5.805a5 5 0 015-5h60a5 5 0 015 5v60a5 5 0 01-5 5h-60a5 5 0 01-5-5v-60z" fill="#56ABF7"/><g clip-path="url(#clip0)" fill="#FCFCFC"><path d="M36.984 41.421h-2.516a1.655 1.655 0 110-3.311h4.428a1.1 1.1 0 001.097-1.098 1.1 1.1 0 00-1.097-1.098h-2.077v-1.527a1.1 1.1 0 00-1.097-1.098 1.1 1.1 0 00-1.098 1.098v1.527h-.156a3.857 3.857 0 00-3.85 3.852 3.857 3.857 0 003.85 3.85h2.516a1.655 1.655 0 110 3.312h-4.51c-.604 0-1.098.494-1.098 1.098 0 .604.494 1.098 1.098 1.098h2.159v1.564a1.1 1.1 0 001.098 1.097 1.1 1.1 0 001.097-1.097v-1.564h.211a3.852 3.852 0 003.796-3.852 3.857 3.857 0 00-3.851-3.85z"/><path d="M52.222 38.933c-1.152-2.653-2.744-5.223-4.756-7.629-2.434-2.927-4.858-4.885-6.093-5.79l4.666-8.654c.228-.43.155-.96-.202-1.299-1.207-1.18-2.488-1.756-3.915-1.756-1.308 0-2.506.494-3.55.933-.822.338-1.6.668-2.231.668-.192 0-.357-.028-.522-.092-2.177-.796-3.85-1.29-5.47-1.29-2.049 0-3.796.824-5.507 2.58a1.105 1.105 0 00-.128 1.372l5.031 7.602c-1.244.924-3.622 2.863-6.01 5.726-2.003 2.406-3.604 4.976-4.756 7.63-1.446 3.338-2.177 6.823-2.177 10.354 0 4.693 3.823 8.517 8.516 8.517h20.765c4.693 0 8.517-3.824 8.517-8.517 0-3.53-.732-7.016-2.178-10.355zM26.856 17.52c1.061-.915 2.076-1.318 3.293-1.318 1.3 0 2.763.44 4.711 1.162.403.146.833.22 1.272.22 1.07 0 2.095-.421 3.073-.833.943-.393 1.839-.768 2.708-.768.42 0 1.015.073 1.766.604l-4.391 8.16H31.64l-4.784-7.227zm19.027 38.09H25.118a6.328 6.328 0 01-6.321-6.32c0-5.864 2.15-11.426 6.376-16.53 2.671-3.23 5.388-5.233 6.211-5.818H39.6c.832.576 3.54 2.588 6.21 5.817 4.236 5.105 6.377 10.657 6.377 16.53.018 3.486-2.818 6.321-6.303 6.321z"/></g><defs><clipPath id="clip0"><path fill="#fff" transform="translate(13.5 13.805)" d="M0 0h44v44H0z"/></clipPath></defs></svg>