<svg width="71" height="71" fill="none" xmlns="http://www.w3.org/2000/svg"><rect x=".5" y=".805" width="70" height="70" rx="5" fill="#56ABF7"/><g clip-path="url(#clip0)" fill="#FCFCFC"><path d="M42.887 44.023c-1.043 0-1.89-.734-1.89-1.636 0-.902.847-1.636 1.89-1.636 1.042 0 1.89.734 1.89 1.636a.86.86 0 001.72 0c0-1.575-1.174-2.899-2.75-3.258v-.447a.86.86 0 00-1.72 0v.447c-1.576.359-2.75 1.683-2.75 3.258 0 1.85 1.62 3.355 3.61 3.355 1.042 0 1.89.734 1.89 1.636 0 .903-.848 1.637-1.89 1.637-1.043 0-1.89-.734-1.89-1.637a.86.86 0 00-1.72 0c0 1.575 1.174 2.9 2.75 3.259v.371a.86.86 0 001.72 0v-.371c1.576-.36 2.75-1.684 2.75-3.259 0-1.85-1.62-3.355-3.61-3.355zm9.411-5.113a11.198 11.198 0 00-4.574-4.048.86.86 0 10-.745 1.55 9.51 9.51 0 015.363 8.525 9.47 9.47 0 01-1.101 4.433.86.86 0 001.517.807 11.194 11.194 0 001.303-5.24c0-2.145-.61-4.23-1.763-6.027zm-8.061-5.144h-.057a.86.86 0 000 1.718h.054a.86.86 0 00.003-1.718zM38.8 53.462a9.51 9.51 0 01-5.362-8.525 9.47 9.47 0 011.101-4.434.86.86 0 00-1.517-.807 11.194 11.194 0 00-1.303 5.241c0 2.145.61 4.229 1.763 6.026a11.198 11.198 0 004.574 4.048.856.856 0 001.147-.402.86.86 0 00-.403-1.147zm2.8.928h-.05a.859.859 0 10-.007 1.72h.057a.86.86 0 000-1.72z"/><path d="M46.793 30.858a3.945 3.945 0 00-.382-.702h2.237a3.958 3.958 0 003.953-3.953 3.958 3.958 0 00-3.953-3.953h-6.882a3.93 3.93 0 00.695-2.234 3.958 3.958 0 00-3.953-3.953H17.453a3.958 3.958 0 00-3.953 3.953 3.958 3.958 0 003.953 3.953h6.882a3.93 3.93 0 00-.694 2.234c0 .829.256 1.598.694 2.235h-2.241a3.958 3.958 0 00-3.953 3.953c0 1.251.585 2.369 1.496 3.093a3.947 3.947 0 000 6.188 3.947 3.947 0 000 6.187 3.947 3.947 0 00-1.496 3.094 3.958 3.958 0 003.953 3.953H32.22a14.571 14.571 0 0010.67 4.64c8.055 0 14.609-6.553 14.609-14.608 0-6.705-4.54-12.368-10.707-14.08zm1.855-6.89a2.237 2.237 0 012.235 2.235 2.237 2.237 0 01-2.235 2.235H27.594a2.237 2.237 0 01-2.235-2.235 2.237 2.237 0 012.235-2.234h21.054zM17.453 22.25a2.237 2.237 0 01-2.234-2.234 2.237 2.237 0 012.234-2.235h21.055a2.237 2.237 0 012.234 2.235 2.237 2.237 0 01-2.234 2.234H17.453zm4.64 7.906h21.055c.346 0 .678.08.975.225a14.564 14.564 0 00-11.57 4.244h-10.46a2.237 2.237 0 01-2.234-2.234 2.237 2.237 0 012.235-2.235zm0 6.188h8.991a14.567 14.567 0 00-2.209 4.468h-6.781a2.237 2.237 0 01-2.235-2.234 2.237 2.237 0 012.235-2.234zm0 6.187h6.388A14.64 14.64 0 0028.428 47h-6.334a2.237 2.237 0 01-2.235-2.234 2.237 2.237 0 012.235-2.235zm0 10.656a2.237 2.237 0 01-2.234-2.234 2.237 2.237 0 012.235-2.234h6.684a14.549 14.549 0 002.062 4.468h-8.746zm20.798 4.641c-7.108 0-12.89-5.783-12.89-12.89 0-7.108 5.782-12.891 12.89-12.891 7.108 0 12.89 5.783 12.89 12.89 0 7.108-5.782 12.891-12.89 12.891z"/></g><defs><clipPath id="clip0"><path fill="#fff" transform="translate(13.5 15.805)" d="M0 0h44v44H0z"/></clipPath></defs></svg>