<svg width="71" height="71" fill="none" xmlns="http://www.w3.org/2000/svg"><rect x=".5" y=".805" width="70" height="70" rx="5" fill="#56ABF7"/><g clip-path="url(#clip0)" fill="#FCFCFC"><path d="M17.048 18.063h21.29v4.968c0 .392.318.71.71.71h4.968v5.677h1.42V23.03a.708.708 0 00-.21-.503l-5.675-5.675a.709.709 0 00-.503-.21H19.887v-1.419h26.968v15.613h1.42V14.514a.709.709 0 00-.71-.71H19.176a.709.709 0 00-.71.71v2.13H16.34a.709.709 0 00-.71.71v39.741c0 .393.317.71.71.71h24.129v-1.42h-23.42V18.063zm22.71 1.003l3.255 3.255h-3.255v-3.255z"/><path d="M54.663 35.095h-1.069c-3.169 0-6.15-1.396-8.178-3.83l-.143-.172c-.269-.325-.822-.325-1.09 0l-.144.172a10.617 10.617 0 01-8.179 3.83h-1.068a.709.709 0 00-.71.71v11.493a7.823 7.823 0 003.934 6.779l6.36 3.634a.71.71 0 00.703 0l6.36-3.634a7.823 7.823 0 003.933-6.779V35.804a.709.709 0 00-.71-.71zm-.71 12.203a6.398 6.398 0 01-3.219 5.546l-6.007 3.434-6.007-3.433a6.401 6.401 0 01-3.219-5.547V36.514h.36a12.03 12.03 0 008.866-3.883 12.029 12.029 0 008.867 3.883h.359v10.784z"/><path d="M44.724 37.225c-4.304 0-7.806 3.502-7.806 7.806s3.502 7.806 7.806 7.806c4.305 0 7.807-3.502 7.807-7.806s-3.502-7.806-7.807-7.806zm0 14.193a6.394 6.394 0 01-6.387-6.387 6.394 6.394 0 016.387-6.387 6.394 6.394 0 016.388 6.387 6.394 6.394 0 01-6.388 6.387z"/><path d="M44.39 47.236l-1.29-1.289-1.003 1.004 2.129 2.129a.708.708 0 001.181-.298l2.13-7.097-1.36-.408-1.788 5.959zM18.465 25.158h18.451v1.42H18.465v-1.42zm0 2.84h18.451v1.42H18.465v-1.42zm0 2.838h18.451v1.42H18.465v-1.42zm0 2.84h14.193v1.42H18.465v-1.42zm0 2.838h14.193v1.419H18.465v-1.42zm0 2.839h14.193v1.42H18.465v-1.42zm0 8.517h14.193v1.419H18.465v-1.42zm0 2.837h14.193v1.42H18.465v-1.42zm0 2.84h14.193v1.42H18.465v-1.42zm.715-34.065h1.419v1.42h-1.42v-1.42zm2.836 0h1.419v1.42h-1.42v-1.42zm2.839 0h1.42v1.42h-1.42v-1.42zm2.84 0h9.226v1.42h-9.226v-1.42z"/></g><defs><clipPath id="clip0"><path fill="#fff" transform="translate(13.5 13.805)" d="M0 0h44v44H0z"/></clipPath></defs></svg>