<svg width="71" height="71" fill="none" xmlns="http://www.w3.org/2000/svg"><rect x=".5" y=".805" width="70" height="70" rx="5" fill="#56ABF7"/><g clip-path="url(#clip0)" fill="#FCFCFC"><path d="M53.834 17.93h-5.959v-2.75a1.374 1.374 0 10-2.75 0v2.75h-8.25v-2.75a1.375 1.375 0 10-2.75 0v2.75h-8.25v-2.75a1.375 1.375 0 10-2.75 0v2.75h-5.958a3.666 3.666 0 00-3.667 3.665v32.543a3.667 3.667 0 003.667 3.667h36.667a3.666 3.666 0 003.666-3.667V21.595a3.665 3.665 0 00-3.666-3.665zm.916 36.208a.917.917 0 01-.916.917H17.167a.918.918 0 01-.917-.917V21.595c0-.504.411-.915.917-.915h5.958v2.75a1.375 1.375 0 102.75 0v-2.75h8.25v2.75a1.375 1.375 0 102.75 0v-2.75h8.25v2.75a1.374 1.374 0 102.75 0v-2.75h5.96c.504 0 .915.41.915.915v32.543z"/><path d="M28.625 30.305h-5.5v4.125h5.5v-4.125zm0 6.875h-5.5v4.125h5.5V37.18zm0 6.875h-5.5v4.125h5.5v-4.125zm9.625 0h-5.5v4.125h5.5v-4.125zm0-6.875h-5.5v4.125h5.5V37.18zm0-6.875h-5.5v4.125h5.5v-4.125zm9.625 13.75h-5.5v4.125h5.5v-4.125zm0-6.875h-5.5v4.125h5.5V37.18zm0-6.875h-5.5v4.125h5.5v-4.125z"/></g><defs><clipPath id="clip0"><path fill="#fff" transform="translate(13.5 13.805)" d="M0 0h44v44H0z"/></clipPath></defs></svg>