<svg width="61" height="61" fill="none" xmlns="http://www.w3.org/2000/svg"><g clip-path="url(#clip0)" fill="#56ABF7"><path d="M44.598.773a.884.884 0 00-.621-.257H21.71a.88.88 0 00-.879.879V5.36c0 .485.394.88.879.88a.881.881 0 00.879-.88V2.273h20.508v16.994h-10.84a.882.882 0 00-.326.063l-4.655 1.86v-1.044a.884.884 0 00-.879-.88H22.59V8.877a.88.88 0 00-1.758 0v11.27a.883.883 0 00.878.879h3.81v1.463a.879.879 0 001.204.816l5.702-2.28h11.55a.889.889 0 00.622-.256.885.885 0 00.258-.622V1.395a.88.88 0 00-.258-.622zm9.925 49.781h-2.636l.001-1.946a10.228 10.228 0 003.514-7.718v-3.372c.687-3.455.372-6.016-.938-7.614a4.39 4.39 0 00-2.577-1.534v-3.89a.879.879 0 00-.88-.879l-1.022-.003c-.364-.002-.734-.004-1.11-.004-4.24 0-9 .268-11.827 3.471-2.034 2.304-2.739 5.707-2.154 10.402v3.423c0 3.076 1.363 5.84 3.516 7.72v1.944h-2.637a4.4 4.4 0 00-4.394 4.395v4.687c0 .486.393.879.879.879h25.781a.879.879 0 00.879-.879v-4.687a4.4 4.4 0 00-4.395-4.395zM38.366 28.228c2.343-2.654 6.654-2.877 10.51-2.877.372 0 .739.002 1.1.004l.153.001v3.811a.876.876 0 00.925.878 2.697 2.697 0 012.051.974c.6.732.9 1.854.893 3.31l-.382-.764a.878.878 0 00-1.053-.444c-.052.017-5.26 1.665-8.264 1.665-2.881 0-5.489-1.563-5.514-1.578a.879.879 0 00-1.16.223l-1.16 1.547c-.072-2.972.565-5.237 1.9-6.75zM36.652 40.89v-3.233l1.925-2.566c1.083.539 3.281 1.453 5.722 1.453 2.603 0 6.479-1.058 8.077-1.529l1.269 2.538v3.337c0 4.682-3.812 8.492-8.497 8.492-4.684 0-8.496-3.81-8.496-8.492zm13.478 8.956l-.001 1.117-2.699 1.8-1.403-.701v-.96a10.182 10.182 0 004.103-1.256zm-5.86 1.256v.908l-1.901.76-2.2-1.76v-1.163a10.179 10.179 0 004.1 1.255zm-3.516 7.655h-4.101V57h4.1v1.758zM57.16 54.95v3.808H42.512V56.12a.879.879 0 00-.88-.878h-5.858a.879.879 0 00-.88.878v2.637h-1.757V54.95a2.64 2.64 0 012.637-2.637h3.207l2.69 2.15c.008.007.016.011.024.017a.904.904 0 00.202.113l.052.02c.03.009.059.016.089.022.015.003.03.008.044.01a.866.866 0 00.23.006l.016-.002a.9.9 0 00.073-.012l.029-.007a.767.767 0 00.093-.029l.023-.008 2.562-1.024 1.993.995.04.017c.017.007.032.015.048.02a.855.855 0 00.066.021l.032.01a.895.895 0 00.094.017l.008.001a.888.888 0 00.227-.002l.053-.011c.022-.005.045-.009.067-.015.017-.005.035-.013.052-.019.022-.008.044-.015.065-.025l.046-.023a.928.928 0 00.067-.038l.015-.008 3.293-2.196h3.25a2.64 2.64 0 012.636 2.634v.003zm-31.934-4.393h-3.808v-1.061a10.25 10.25 0 004.687-8.604v-1.937l1.17.418a.88.88 0 001.174-.828c0-5.275-1.015-9.192-3.018-11.641-1.646-2.013-3.908-3.033-6.723-3.033-3.282 0-6.357 1.41-7.45 1.97l-2.06-.98a.878.878 0 00-.818.033c-.353.204-3.42 2.22-2.782 10.168v5.83a10.25 10.25 0 004.687 8.605v1.06H6.477a4.4 4.4 0 00-4.395 4.394v4.688c0 .485.394.878.879.878h25.781a.879.879 0 00.879-.879v-4.687a4.4 4.4 0 00-4.395-4.394zM8.963 26.696l1.94.924a.88.88 0 00.816-.032c.034-.02 3.46-1.96 6.989-1.96 5.032 0 7.708 3.923 7.963 11.663L11.46 31.858a.879.879 0 00-.689.042l-3.492 1.746c-.128-4.404 1.09-6.295 1.684-6.95zM7.355 40.892v-5.32l3.867-1.933 13.126 4.688v2.565c0 4.683-3.812 8.493-8.496 8.493-4.685 0-8.497-3.81-8.497-8.493zm12.306 9.517l-.001 1.026c0 2.1-1.709 3.81-3.809 3.81a3.813 3.813 0 01-3.808-3.81V50.41c1.178.473 2.463.734 3.808.734 1.346 0 2.631-.261 3.81-.734zm8.202 4.542v3.809H3.84v-3.81a2.64 2.64 0 012.637-2.636h3.878a5.575 5.575 0 005.497 4.687 5.575 5.575 0 005.496-4.688h3.879a2.64 2.64 0 012.636 2.634v.003z"/><path d="M35.537 5.145a3.793 3.793 0 00-2.693-1.116 3.789 3.789 0 00-2.693 1.116 3.783 3.783 0 00-1.116 2.693.88.88 0 001.758 0v-.001a2.037 2.037 0 01.601-1.448 2.043 2.043 0 012.898 0c.388.387.601.901.602 1.449a2.037 2.037 0 01-.602 1.45 2.042 2.042 0 01-1.437.601h-.011a.88.88 0 00-.88.88v2.343a.88.88 0 001.758 0v-1.568a3.784 3.784 0 001.815-1.013 3.789 3.789 0 001.115-2.693 3.792 3.792 0 00-1.115-2.693zm-2.693 9.433a.88.88 0 00-.88.879v1.17a.88.88 0 001.759 0v-1.17a.88.88 0 00-.88-.879z"/></g><defs><clipPath id="clip0"><path fill="#fff" transform="translate(.5 .516)" d="M0 0h60v60H0z"/></clipPath></defs></svg>