<svg width="61" height="61" fill="none" xmlns="http://www.w3.org/2000/svg"><g clip-path="url(#clip0)" fill="#56ABF7"><path d="M59.728 4.597a.883.883 0 00-.6-.31L46.068 3.17l-.236-1.882a.884.884 0 00-.987-.766L32.733 2.046a.879.879 0 00-.148-.027L15.935.597a.892.892 0 00-.955.805l-.248 2.906L1.836 5.93a.892.892 0 00-.767.987l6.583 52.36c.03.239-.021.468.076.7a.893.893 0 00.814.539h43.35a.883.883 0 00.883-.884v-1.15l1.71.146a.892.892 0 00.956-.805l4.491-52.581a.883.883 0 00-.204-.645zM7.659 45.167L2.933 7.573l4.726-.594v38.188zm9.007-42.734l7.732.66-7.873.99.14-1.65zm27.524-.047l.451 3.59h-29.01l28.559-3.59zm9.566 54.406l-.981-.084V30.89a.883.883 0 10-1.767 0v27.859H9.426V7.743h41.582v19.024a.883.883 0 101.767 0V6.86a.883.883 0 00-.884-.884h-5.469l-.127-1.013 11.801 1.008-4.34 50.82z"/><path d="M47.18 10.688h-4.712a.883.883 0 00-.735.393l-2 3a13.063 13.063 0 00-7.63-2.451.883.883 0 00-.884.883v12.251c0 .488.395.884.883.884h12.251a.883.883 0 00.883-.884 13.1 13.1 0 00-4.131-9.555l1.836-2.755h4.24a.883.883 0 10-.001-1.767zM43.435 23.88h-10.45V13.43a11.3 11.3 0 015.767 2.122l-.788 1.182a.892.892 0 00.166 1.166.892.892 0 001.304-.186l.675-1.012a11.337 11.337 0 013.326 7.178z"/><path d="M47.18 39.9h-7.99l-1.409-2.253a13.09 13.09 0 003.687-9.114.883.883 0 00-.884-.884H29.217V16.282a.883.883 0 00-.883-.884c-7.243 0-13.135 5.893-13.135 13.135s5.892 13.134 13.135 13.134a13.07 13.07 0 008.116-2.815l1.5 2.4a.884.884 0 00.75.415h8.48a.883.883 0 100-1.767zm-12.443-7.124a.883.883 0 10-1.498.937l2.269 3.63a11.314 11.314 0 01-7.174 2.557c-6.268 0-11.368-5.1-11.368-11.367 0-5.97 4.627-10.881 10.484-11.334v11.334c0 .488.396.883.884.883h11.333a11.323 11.323 0 01-2.855 6.68l-2.075-3.32zM20.794 44.613h-7.54a.883.883 0 100 1.767h7.54a.883.883 0 100-1.767zm11.308 0h-7.539a.883.883 0 100 1.767h7.54a.883.883 0 100-1.767zm-6.597 4.711h-12.25a.883.883 0 100 1.767h12.25a.883.883 0 100-1.767zm6.596 0h-2.827a.883.883 0 100 1.767h2.827a.883.883 0 100-1.767zm-15.077 4.711h-3.77a.883.883 0 100 1.767h3.77a.883.883 0 100-1.767zm15.078 0H20.794a.883.883 0 100 1.767h11.308a.883.883 0 100-1.767z"/></g><defs><clipPath id="clip0"><path fill="#fff" transform="translate(.5 .516)" d="M0 0h60v60H0z"/></clipPath></defs></svg>