<svg width="61" height="61" fill="none" xmlns="http://www.w3.org/2000/svg"><g clip-path="url(#clip0)" fill="#56ABF7"><path d="M30.5 49.516c-2.206 0-4 1.794-4 4s1.794 4 4 4 4-1.794 4-4-1.794-4-4-4zm0 6c-1.103 0-2-.897-2-2s.897-2 2-2 2 .897 2 2-.897 2-2 2zm-4-50h4a1 1 0 100-2h-4a1 1 0 100 2zm7 0h1a1 1 0 100-2h-1a1 1 0 100 2zm23.61-.432a.999.999 0 10-1.414 1.414c3.736 3.736 3.736 9.815 0 13.552a.999.999 0 101.414 1.414c4.516-4.515 4.516-11.864 0-16.38z"/><path d="M52.899 7.36a.999.999 0 10-1.414 1.414 6.517 6.517 0 011.918 4.639 6.514 6.514 0 01-1.918 4.638.999.999 0 101.414 1.414 8.499 8.499 0 002.504-6.052 8.497 8.497 0 00-2.504-6.053zM5.301 6.498a.999.999 0 10-1.414-1.414c-4.516 4.516-4.516 11.864 0 16.38a.997.997 0 001.414 0 .999.999 0 000-1.414c-3.737-3.736-3.737-9.815 0-13.552z"/><path d="M9.512 7.084a.999.999 0 00-1.414 0 8.499 8.499 0 00-2.504 6.052c0 2.288.889 4.438 2.504 6.053a.997.997 0 001.414 0 .999.999 0 000-1.414 6.517 6.517 0 01-1.918-4.639 6.51 6.51 0 011.918-4.638 1 1 0 000-1.414z"/><path fill-rule="evenodd" clip-rule="evenodd" d="M17.905.516h25.19A4.411 4.411 0 0147.5 4.92v51.19a4.411 4.411 0 01-4.406 4.405H17.905A4.411 4.411 0 0113.5 56.11V41.516h2v5h30v-38h-30v28h-2V4.92A4.411 4.411 0 0117.905.516zm25.189 2H17.905A2.408 2.408 0 0015.5 4.92v1.595h30V4.92a2.408 2.408 0 00-2.406-2.405zm-25.189 56h25.19A2.408 2.408 0 0045.5 56.11v-7.595h-30v7.595a2.408 2.408 0 002.405 2.405z"/></g><defs><clipPath id="clip0"><path fill="#fff" transform="translate(.5 .516)" d="M0 0h60v60H0z"/></clipPath></defs></svg>