<svg width="61" height="61" fill="none" xmlns="http://www.w3.org/2000/svg"><g clip-path="url(#clip0)" fill="#56ABF7"><path d="M36.504 21.5a1 1 0 001 1h10.004a1 1 0 100-2H37.504a1 1 0 00-1 1zm6 6.004a1 1 0 001 1h6.003a1 1 0 100-2h-6.003a1 1 0 00-1 1zm-.999-11.005a1 1 0 100-2.001h-2a1 1 0 100 2h2zM29.5 26.504a1 1 0 100 2h10.004a1 1 0 100-2H29.5zm5 28.01H15.491a3.005 3.005 0 01-3.001-3.001V5.495a1 1 0 00-1-1 5.008 5.008 0 00-5.003 5.001 1 1 0 102.001 0c0-1.304.836-2.417 2-2.83v44.847a5.008 5.008 0 005.003 5.002h19.007a1 1 0 100-2z"/><path d="M19.497 22.5h14.005a1 1 0 100-2H19.496a1 1 0 100 2zm0-6.001h4.001a1 1 0 100-2.001h-4.002a1 1 0 100 2zm16.007-2.001H27.5a1 1 0 100 2h8.004a1 1 0 100-2z"/><path d="M49.507.516H11.492c-4.953 0-8.985 4.02-9.004 8.968v.047a9.04 9.04 0 004.501 7.763 1.001 1.001 0 001.002-1.73A7.035 7.035 0 014.49 9.507a7.01 7.01 0 017.003-6.99h38.015c3.86 0 7.003 3.14 7.003 7.002v42.017c0 .507-.142 1.017-.41 1.47a1.001 1.001 0 001.725 1.015c.449-.761.686-1.62.686-2.485V9.52c0-4.965-4.039-9.003-9.004-9.003z"/><path d="M52.509 46.51a6.008 6.008 0 00-6.003-6.002 6.008 6.008 0 00-6.002 6.002 6.008 6.008 0 006.002 6.003 6.008 6.008 0 006.003-6.003zm-6.003 4.002a4.006 4.006 0 01-4.001-4.002 4.006 4.006 0 014.001-4.001 4.006 4.006 0 014.002 4.001 4.006 4.006 0 01-4.002 4.002zM44.7 53.515a1.001 1.001 0 00-1.367.366l-2.153 3.733-.342-.517a.995.995 0 00-.775-.447l-.618-.037 2.19-3.791a1 1 0 00-1.734-1l-2.998 5.192a1.002 1.002 0 00.807 1.499l1.734.104.957 1.45c.185.28.5.449.835.449h.03c.346-.011.663-.2.837-.5l2.964-5.135a1 1 0 00-.367-1.366zm8.438-1.647a1 1 0 10-1.733 1l2.163 3.745-.618.037a1.004 1.004 0 00-.775.447l-.34.516-2.143-3.713a1 1 0 00-1.734 1l2.953 5.115c.175.3.492.49.837.5h.03c.335 0 .65-.168.836-.449l.957-1.448 1.732-.105a.998.998 0 00.822-.524 1.005 1.005 0 00-.014-.975l-2.973-5.146zM19.497 28.505h6.002a1 1 0 100-2.001h-6.002a1 1 0 100 2zm0 6H31.5a1 1 0 100-2.001H19.496a1 1 0 100 2zm.105 12.453a1 1 0 101.788-.894c-.99-1.981-1.212-3.758-.596-4.755.328-.531.9-.8 1.703-.8.477 0 .655.163.767.324.745 1.074.037 4.346-.704 6.327a1.001 1.001 0 001.644 1.059c.428-.427.89-.852 1.294-1.197v.49a.999.999 0 001.708.707 12.51 12.51 0 011.433-1.226 2.683 2.683 0 01-.036.072 1.004 1.004 0 00.896 1.447h4.002a1 1 0 100-2.001h-2.604c.081-.476.061-.96-.18-1.35-.255-.414-.7-.65-1.217-.65-.619 0-1.346.375-2.01.841a1.156 1.156 0 00-.701-.957c-.268-.11-.612-.254-1.447.247.329-1.724.425-3.71-.433-4.949-.375-.541-1.098-1.185-2.412-1.185-1.499 0-2.708.621-3.405 1.75-.998 1.614-.813 4.056.51 6.7zm26.903-13.454a1 1 0 00-1-1H35.5a1 1 0 100 2h10.004a1 1 0 001-1z"/></g><defs><clipPath id="clip0"><path fill="#fff" transform="translate(.5 .516)" d="M0 0h60v60H0z"/></clipPath></defs></svg>