<svg width="61" height="61" fill="none" xmlns="http://www.w3.org/2000/svg"><g clip-path="url(#clip0)" fill="#56ABF7"><path d="M51.086 10.383a28.087 28.087 0 01-5.394-1.224.879.879 0 00-.559 1.666 29.838 29.838 0 005.733 1.302c2.958.374 5.069 3.104 4.706 6.085-.477 3.91-1.35 9.745-2.8 15.342-1.58 6.097-3.433 10.34-5.51 12.609-4.265 4.66-9.612 8.791-13.347 11.436a5.684 5.684 0 01-6.561 0c-3.735-2.645-9.082-6.775-13.347-11.436-2.076-2.27-3.93-6.512-5.51-12.609-1.45-5.597-2.323-11.432-2.8-15.342-.363-2.98 1.748-5.71 4.706-6.085 8.528-1.079 14.18-5.363 17.42-8.768a3.846 3.846 0 012.811-1.203 3.85 3.85 0 012.812 1.203 28.835 28.835 0 008.019 5.945.88.88 0 00.785-1.573 27.097 27.097 0 01-7.531-5.583 5.587 5.587 0 00-4.085-1.75c-1.56 0-3.01.622-4.084 1.75-3.044 3.197-8.353 7.221-16.367 8.235-3.916.495-6.711 4.103-6.23 8.042.818 6.714 3.31 22.972 8.757 28.925 4.37 4.775 9.823 8.99 13.628 11.683a7.426 7.426 0 004.296 1.366 7.43 7.43 0 004.297-1.366c3.804-2.694 9.257-6.908 13.627-11.683 5.448-5.953 7.94-22.211 8.758-28.925.48-3.939-2.314-7.547-6.23-8.042z"/><path d="M28.65 8.656c-4.445 3.847-9.636 6.365-15.426 7.484a3.397 3.397 0 00-2.712 3.798c.41 3.008 1.247 8.634 2.252 12.512 1.832 7.07 3.603 9.762 4.495 10.737 2.935 3.207 8.38 7.49 11.364 9.76a3.32 3.32 0 002.011.674c.71 0 1.42-.225 2.011-.675 2.985-2.268 8.43-6.552 11.363-9.758.893-.976 2.664-3.668 4.496-10.738 1.005-3.88 1.842-9.504 2.252-12.512a3.397 3.397 0 00-2.712-3.798c-5.79-1.119-10.98-3.637-15.427-7.484a3.047 3.047 0 00-3.966 0zM49.016 19.7c-.405 2.969-1.23 8.516-2.213 12.308-1.851 7.147-3.599 9.455-4.09 9.992-2.947 3.22-8.766 7.748-11.13 9.545a1.57 1.57 0 01-1.896 0c-2.364-1.797-8.183-6.325-11.13-9.545-.491-.537-2.239-2.845-4.09-9.992-.982-3.79-1.807-9.338-2.212-12.308a1.638 1.638 0 011.303-1.835c6.097-1.178 11.562-3.83 16.244-7.881a1.27 1.27 0 01.833-.309c.297 0 .596.103.833.309 4.682 4.052 10.147 6.703 16.244 7.88a1.64 1.64 0 011.304 1.836z"/><path d="M25.758 27.828c-.66-.539-2.892-1.65-4.49.46-1.597 2.11-.2 3.952.462 4.49l2.548 2.074a.879.879 0 101.11-1.364l-2.549-2.073c-.296-.242-.945-1.029-.207-2.017s1.72-.449 2.017-.207l5.277 4.294a.879.879 0 001.174-.058l7.722-7.65a1.435 1.435 0 012.028.01c.556.56.551 1.47-.01 2.026l-9.199 9.113c-.728.703-1.53.41-1.913.094l-1.46-1.188a.88.88 0 00-1.11 1.363l1.46 1.189a3.2 3.2 0 002.014.715c.848 0 1.645-.328 2.247-.924l9.198-9.112a3.195 3.195 0 00.021-4.514 3.195 3.195 0 00-4.513-.021l-7.162 7.095-4.665-3.796z"/></g><defs><clipPath id="clip0"><path fill="#fff" transform="translate(.5 .516)" d="M0 0h60v60H0z"/></clipPath></defs></svg>