<svg width="53" height="6" fill="none" xmlns="http://www.w3.org/2000/svg"><path d="M52.183.496c-2.387 0-3.622 1.014-4.712 1.909-1.02.837-1.902 1.56-3.741 1.56-1.84 0-2.72-.723-3.74-1.56C38.9 1.51 37.663.496 35.276.496s-3.622 1.014-4.712 1.909c-1.02.837-1.901 1.56-3.74 1.56-1.84 0-2.72-.723-3.74-1.56C21.994 1.51 20.76.496 18.372.496c-2.387 0-3.622 1.014-4.712 1.909-1.02.837-1.901 1.56-3.74 1.56-1.84 0-2.72-.723-3.74-1.56C5.09 1.51 3.854.496 1.467.496a.765.765 0 100 1.53c1.84 0 2.72.724 3.74 1.562 1.09.894 2.326 1.908 4.713 1.908s3.622-1.014 4.711-1.908c1.02-.838 1.902-1.561 3.74-1.561 1.84 0 2.721.723 3.741 1.56 1.09.895 2.325 1.91 4.712 1.91 2.387 0 3.622-1.015 4.712-1.91 1.02-.837 1.901-1.56 3.74-1.56 1.84 0 2.72.723 3.741 1.56 1.09.895 2.325 1.91 4.712 1.91 2.387 0 3.622-1.015 4.712-1.91 1.02-.837 1.901-1.56 3.74-1.56a.765.765 0 100-1.53z" fill="#FCFCFC"/></svg>