<svg width="27" height="26" fill="none" xmlns="http://www.w3.org/2000/svg"><g clip-path="url(#clip0)" fill="#7D7D7D"><path d="M26.495 10.073a.384.384 0 00-.018-.085.4.4 0 00-.025-.071.368.368 0 00-.043-.064.401.401 0 00-.058-.065c-.007-.006-.01-.014-.017-.02l-4.168-3.112V3.431c0-.69-.582-1.25-1.3-1.25H16.17L14.29.777a1.326 1.326 0 00-1.58 0L10.827 2.18H6.133c-.718 0-1.3.56-1.3 1.25v3.225L.666 9.77c-.007.005-.01.013-.017.02a.396.396 0 00-.058.064.37.37 0 00-.043.064.4.4 0 00-.025.071.383.383 0 00-.018.084c0 .008-.005.016-.005.025v14.168c0 .265.09.523.254.736.003.003.003.008.006.011.003.004.01.007.014.012.244.308.622.49 1.025.491h23.4a1.312 1.312 0 001.029-.493c.003-.004.008-.005.011-.01.004-.004.004-.008.007-.011.164-.213.253-.47.254-.736V10.098c0-.009-.005-.017-.005-.025zM13.239 1.434a.429.429 0 01.517 0l1 .747h-2.514l.997-.747zM1.908 24.682l11.331-8.463a.43.43 0 01.517 0l11.335 8.463H1.908zm23.725-.65L14.29 15.561a1.327 1.327 0 00-1.58 0L1.364 24.032v-13.3l7.102 5.303c.189.14.461.108.608-.074a.406.406 0 00-.077-.585L1.784 9.989l3.048-2.278v3.22c0 .23.194.417.434.417a.426.426 0 00.433-.417v-7.5c0-.23.194-.417.433-.417h14.734c.24 0 .434.187.434.417v7.5c0 .23.194.417.433.417.24 0 .433-.187.433-.417v-3.22l3.049 2.278-7.227 5.396a.41.41 0 00.1.719c.144.056.31.033.431-.06l7.114-5.312v13.3z"/><path d="M18.697 10.515V8.848c0-2.762-2.328-5-5.2-5-2.872 0-5.2 2.238-5.2 5 0 2.761 2.328 5 5.2 5 .24 0 .434-.186.434-.417a.425.425 0 00-.434-.416c-2.393 0-4.333-1.866-4.333-4.167 0-2.301 1.94-4.167 4.333-4.167 2.393 0 4.334 1.866 4.334 4.167v1.667c0 .46-.388.833-.867.833s-.867-.373-.867-.833V8.848a.425.425 0 00-.433-.417.425.425 0 00-.434.417c0 .92-.776 1.667-1.733 1.667-.957 0-1.733-.747-1.733-1.667s.776-1.667 1.733-1.667c.24 0 .434-.186.434-.416a.425.425 0 00-.434-.417c-1.164-.003-2.187.739-2.506 1.815-.32 1.076.144 2.225 1.135 2.813.99.587 2.266.47 3.123-.286.095.881.891 1.537 1.811 1.49.92-.047 1.64-.78 1.637-1.665z"/></g><defs><clipPath id="clip0"><path fill="#fff" transform="translate(.5 .516)" d="M0 0h26v25H0z"/></clipPath></defs></svg>