<svg width="28" height="28" fill="none" xmlns="http://www.w3.org/2000/svg"><g clip-path="url(#clip0)" fill="#7D7D7D"><path d="M14.002 12.417a3.154 3.154 0 003.15-3.15 3.154 3.154 0 00-3.15-3.15 3.154 3.154 0 00-3.15 3.15 3.154 3.154 0 003.15 3.15zm0-5.4c1.24 0 2.25 1.01 2.25 2.25s-1.01 2.25-2.25 2.25c-1.241 0-2.25-1.01-2.25-2.25s1.009-2.25 2.25-2.25z"/><path d="M13.919 25.36l6.903-9.971c2.59-3.452 2.215-9.126-.801-12.142A8.572 8.572 0 0013.919.719a8.573 8.573 0 00-6.102 2.527c-3.017 3.016-3.391 8.69-.812 12.129l6.914 9.984zM8.453 3.882a7.68 7.68 0 015.466-2.264 7.68 7.68 0 015.465 2.264c2.723 2.722 3.058 7.846.708 10.98l-6.173 8.915-6.184-8.93c-2.34-3.119-2.004-8.243.718-10.965z"/><path d="M19.453 20.074a.45.45 0 10-.105.894c4.732.557 7.252 2.058 7.252 2.928 0 1.221-4.793 2.925-12.6 2.925-7.807 0-12.6-1.704-12.6-2.925 0-.87 2.52-2.371 7.253-2.928a.45.45 0 00-.106-.894C3.81 20.632.5 22.204.5 23.896c0 1.9 4.637 3.825 13.5 3.825s13.5-1.924 13.5-3.825c0-1.693-3.31-3.264-8.047-3.822z"/></g><defs><clipPath id="clip0"><path fill="#fff" transform="translate(.5 .719)" d="M0 0h27v27H0z"/></clipPath></defs></svg>