<svg width="27" height="27" fill="none" xmlns="http://www.w3.org/2000/svg"><path d="M25.474 20.558l-5.191-3.507a1.502 1.502 0 00-2.029.334l-1.512 1.97a.64.64 0 01-.829.177l-.287-.161c-.954-.527-2.14-1.182-4.53-3.605-2.391-2.422-3.04-3.625-3.559-4.59l-.158-.29a.661.661 0 01.171-.843l1.943-1.531a1.55 1.55 0 00.33-2.056L6.361 1.197A1.496 1.496 0 004.33.734L2.16 2.055A3.097 3.097 0 00.763 3.891C-.02 6.776.569 11.756 7.81 19.092c5.76 5.835 10.048 7.404 12.995 7.404a7.485 7.485 0 002.009-.266 3.066 3.066 0 001.812-1.415l1.305-2.197a1.54 1.54 0 00-.457-2.06zm-.28 1.615l-1.302 2.2a2.213 2.213 0 01-1.303 1.023c-2.63.731-7.223.126-14.175-6.917C1.463 11.437.865 6.784 1.587 4.12a2.237 2.237 0 011.012-1.321l2.17-1.32a.649.649 0 01.882.201l1.88 2.86L9.11 6.938a.672.672 0 01-.143.892L7.024 9.36a1.528 1.528 0 00-.396 1.945l.154.284c.546 1.015 1.225 2.277 3.704 4.789 2.48 2.51 3.726 3.199 4.727 3.752l.28.157c.65.369 1.468.198 1.92-.401l1.512-1.97a.652.652 0 01.88-.144l5.191 3.507c.292.196.379.59.199.893zM15.033 4.846c4.01.005 7.26 3.298 7.265 7.361 0 .24.192.433.428.433a.43.43 0 00.427-.433c-.005-4.541-3.637-8.222-8.12-8.227a.43.43 0 00-.428.433c0 .24.192.433.428.433z" fill="#7D7D7D"/><path d="M15.033 7.444c2.595.003 4.698 2.134 4.701 4.763 0 .24.191.433.427.433a.43.43 0 00.428-.433c-.004-3.107-2.49-5.625-5.556-5.629a.43.43 0 00-.428.433c0 .24.192.433.428.433z" fill="#7D7D7D"/><path d="M15.033 10.042c1.18.001 2.135.97 2.137 2.165a.43.43 0 00.427.433.43.43 0 00.427-.433c-.002-1.673-1.34-3.03-2.991-3.031a.43.43 0 00-.428.433.43.43 0 00.428.433z" fill="#7D7D7D"/></svg>