<svg width="26" height="26" fill="none" xmlns="http://www.w3.org/2000/svg"><g clip-path="url(#clip0)" fill="#7D7D7D"><path d="M13 .516C6.107.516.5 6.123.5 13.016c0 6.892 5.607 12.5 12.5 12.5 6.892 0 12.5-5.608 12.5-12.5 0-6.893-5.608-12.5-12.5-12.5zm0 24.166c-6.433 0-11.667-5.233-11.667-11.666C1.333 6.583 6.567 1.349 13 1.349s11.667 5.234 11.667 11.667c0 6.432-5.234 11.666-11.667 11.666z"/><path d="M13.001 3.016a.417.417 0 00-.416.416v9.584h-6.25a.417.417 0 100 .833H13c.23 0 .417-.186.417-.417v-10A.417.417 0 0013 3.016z"/></g><defs><clipPath id="clip0"><path fill="#fff" transform="translate(.5 .516)" d="M0 0h25v25H0z"/></clipPath></defs></svg>