<svg width="40" height="41" fill="none" xmlns="http://www.w3.org/2000/svg"><g clip-path="url(#clip0)" fill="#FCFCFC"><path d="M24.405 18.24l5.208 3.707a.667.667 0 00.774 0l5.207-3.707a4.12 4.12 0 001.74-3.343V7.01a.667.667 0 00-.4-.612l-6.667-2.88a.667.667 0 00-.529 0l-6.666 2.88a.667.667 0 00-.4.612v7.888a4.12 4.12 0 001.733 3.343zM24 7.447l6-2.59 6 2.59v7.45a2.786 2.786 0 01-1.18 2.261L30 20.586l-4.82-3.432A2.783 2.783 0 0124 14.897v-7.45z"/><path d="M28.265 16.425a.667.667 0 00.921-.116l5.333-6.667a.667.667 0 00-1.041-.833l-4.933 6.163-2.146-1.613a.667.667 0 10-.8 1.066l2.666 2z"/><path d="M1.333 35.892H2v2.666a2 2 0 002 2h4a2 2 0 002-2v-2.666h16v2.666a2 2 0 002 2h4a2 2 0 002-2v-2.666h.667c.736 0 1.333-.597 1.333-1.334v-10a3.298 3.298 0 00-1.153-2.513l2.294-1.632A6.792 6.792 0 0040 14.898v-9.64a.667.667 0 00-.4-.613L30.267.613a.667.667 0 00-.528 0L20.4 4.645a.667.667 0 00-.4.612v2.635H9.913a3.333 3.333 0 00-3.142 2.225L2.844 21.274A3.329 3.329 0 000 24.558v10c0 .737.597 1.334 1.333 1.334zm7.334 2.666a.667.667 0 01-.667.667H4a.667.667 0 01-.667-.667v-2.666h5.334v2.666zm-2.667-4H4.667v-1.333H6v1.333zm26.667 4a.667.667 0 01-.667.667h-4a.667.667 0 01-.667-.667v-2.666h5.334v2.666zm-1.334-4H30v-1.333h1.333v1.333zm-10-28.863L30 1.951l8.667 3.744v9.2a5.455 5.455 0 01-2.3 4.43L30 23.86l-6.367-4.534a5.455 5.455 0 01-2.3-4.428V5.695zm10 19.53c.369 0 .667.299.667.667v1.333a.667.667 0 01-.667.667h-4a.667.667 0 01-.666-.667 2 2 0 012-2h2.666zM20 11.892v1.333h-4.667v-1.333H20zm0-1.334h-1.333V9.225H20v1.333zm-11.971 0a2 2 0 011.884-1.333h7.42v1.333h-2c-.736 0-1.333.597-1.333 1.334v1.333c0 .736.597 1.333 1.333 1.333H20v.34a6.792 6.792 0 002.86 5.515l1.14.812H4.275l3.754-10.667zm-6.696 14a2 2 0 012-2h22.54l2.015 1.435a3.333 3.333 0 00-2.555 3.232 2 2 0 002 2h4a2 2 0 002-2v-1.333a2 2 0 00-1.276-1.86l1.65-1.175c.598.358.963 1.005.96 1.701v10h-2v-1.333c0-.736-.597-1.333-1.334-1.333H30c-.736 0-1.333.597-1.333 1.333v1.333H7.333v-1.333c0-.736-.597-1.333-1.333-1.333H4.667c-.737 0-1.334.597-1.334 1.333v1.333h-2v-10z"/><path d="M12.002 10.559H10.86c-.848 0-1.603.534-1.887 1.333l-2.502 7.112a.667.667 0 001.258.443l2.502-7.11a.667.667 0 01.629-.445H12a.667.667 0 100-1.333zM4.668 29.226h4a2 2 0 002-2 3.337 3.337 0 00-3.333-3.333H4.668a2 2 0 00-2 2v1.333a2 2 0 002 2zm-.667-3.333c0-.369.299-.667.667-.667h2.667a2 2 0 012 2 .667.667 0 01-.667.667h-4a.667.667 0 01-.667-.667v-1.333zm9.332 7.333h9.334c.736 0 1.333-.597 1.333-1.333v-2.667c0-.736-.597-1.333-1.333-1.333h-9.334c-.736 0-1.333.596-1.333 1.333v2.667c0 .736.597 1.333 1.333 1.333zm0-4h9.334v2.667h-9.334v-2.667z"/></g><defs><clipPath id="clip0"><path fill="#fff" transform="translate(0 .559)" d="M0 0h40v40H0z"/></clipPath></defs></svg>