<svg width="40" height="41" fill="none" xmlns="http://www.w3.org/2000/svg"><g clip-path="url(#clip0)" fill="#FCFCFC"><path d="M10.629 37.433a.624.624 0 01-.625-.625 4.38 4.38 0 014.375-4.374.624.624 0 110 1.25 3.128 3.128 0 00-3.125 3.124c0 .346-.28.625-.625.625z"/><path d="M16.875 33.684h-2.5a.625.625 0 110-1.25h2.5a.625.625 0 110 1.25zm-6.246 5.626a.624.624 0 01-.625-.626v-1.696a.624.624 0 111.25 0v1.696c0 .346-.28.625-.625.625zm18.746-1.877a.624.624 0 01-.625-.625 3.128 3.128 0 00-3.125-3.124.624.624 0 110-1.25A4.38 4.38 0 0130 36.808c0 .346-.28.625-.625.625z"/><path d="M23.125 33.684a.625.625 0 110-1.25h2.5a.625.625 0 110 1.25h-2.5zm6.25 5.626a.624.624 0 01-.625-.626v-1.696a.624.624 0 111.25 0v1.696c0 .346-.28.625-.625.625zm-1.251 1.249H11.875a.624.624 0 110-1.25h16.249a.624.624 0 110 1.25zm-11.249-6.875a.624.624 0 01-.625-.625v-2a.624.624 0 111.25 0v2c0 .346-.28.625-.625.625z"/><path d="M23.125 33.683a.624.624 0 01-.625-.625v-2a.624.624 0 111.25 0v2c0 .346-.28.625-.625.625z"/><path d="M20 32.433c-4.136 0-7.5-3.364-7.5-7.5a.625.625 0 111.25 0 6.257 6.257 0 006.25 6.25 6.257 6.257 0 006.25-6.25.625.625 0 111.25 0c0 4.136-3.365 7.5-7.5 7.5z"/><path d="M13.125 25.56a.624.624 0 01-.625-.624V19.31a.625.625 0 111.25 0v5.625c0 .346-.28.625-.625.625zm13.75.001a.624.624 0 01-.625-.625v-5.625a.625.625 0 111.25 0v5.625c0 .346-.28.625-.625.625z"/><path d="M26.875 19.935a.624.624 0 01-.625-.625c0-1.378-1.121-2.5-2.5-2.5a.624.624 0 110-1.25 3.754 3.754 0 013.75 3.75c0 .346-.28.625-.625.625z"/><path d="M23.75 16.81a.624.624 0 01-.625-.625v-2.5a.625.625 0 111.25 0v2.5c0 .346-.28.625-.625.625z"/><path d="M23.75 14.31h-5a.624.624 0 110-1.25h5a.624.624 0 110 1.25z"/><path d="M13.125 19.934a.624.624 0 01-.625-.625 6.256 6.256 0 016.25-6.249.625.625 0 110 1.25c-2.757 0-5 2.243-5 5 0 .345-.28.625-.625.625zm13.75 3.126a.625.625 0 01-.442-.182l-1.875-1.875a.624.624 0 11.884-.884l1.875 1.875a.624.624 0 01-.442 1.067z"/><path d="M20 22.434c-2.803 0-5.196-1.27-5.296-1.324a.625.625 0 01.592-1.101c.021.012 2.225 1.175 4.704 1.175 2.491 0 4.681-1.163 4.703-1.175a.625.625 0 01.592 1.1c-.1.055-2.492 1.325-5.295 1.325z"/><path d="M13.125 23.06a.625.625 0 01-.442-1.066l1.875-1.875a.624.624 0 11.884.884l-1.875 1.875a.624.624 0 01-.442.183zm5 11.875a.624.624 0 01-.442-.183l-1.25-1.25a.624.624 0 11.884-.883l1.25 1.249a.624.624 0 01-.442 1.067z"/><path d="M18.125 34.934a.624.624 0 01-.198-1.218l1.875-.625a.625.625 0 01.396 1.186l-1.875.625a.64.64 0 01-.198.032zm3.75.001a.624.624 0 01-.442-1.067l1.25-1.25a.625.625 0 11.884.884l-1.25 1.25a.624.624 0 01-.442.183z"/><path d="M21.875 34.934a.63.63 0 01-.198-.032l-1.875-.625a.625.625 0 11.396-1.186l1.875.625a.625.625 0 01-.198 1.218zm6.25 5.624a.624.624 0 110-1.25c.345 0 .625-.28.625-.624a.625.625 0 111.25 0 1.877 1.877 0 01-1.875 1.874zm-16.246 0a1.877 1.877 0 01-1.875-1.874.625.625 0 111.25 0c0 .345.28.625.625.625a.624.624 0 110 1.25zm8.14-3.124a.627.627 0 01-.628-.625c0-.346.276-.625.62-.625h.008a.625.625 0 110 1.25zM5.023 23.058a.627.627 0 01-.628-.624c0-.346.276-.625.62-.625h.008a.625.625 0 010 1.25z"/><path d="M5.004 24.934a4.38 4.38 0 01-4.375-4.375 4.38 4.38 0 014.375-4.375 4.35 4.35 0 013.093 1.28 4.347 4.347 0 011.281 3.094 4.38 4.38 0 01-4.374 4.376zm0-7.5a3.13 3.13 0 00-3.125 3.125 3.128 3.128 0 003.125 3.125 3.129 3.129 0 003.124-3.126 3.128 3.128 0 00-3.123-3.125z"/><path d="M5.004 21.185a.624.624 0 01-.625-.625v-1.876a.625.625 0 111.25 0v1.876c0 .345-.28.625-.625.625zm5.624.001H8.754a.624.624 0 110-1.25h1.874a.624.624 0 110 1.25zm24.391 1.872a.627.627 0 01-.628-.624c0-.346.276-.625.62-.625h.008a.625.625 0 110 1.25z"/><path d="M35 24.934a4.38 4.38 0 01-4.375-4.376 4.38 4.38 0 014.374-4.374 4.38 4.38 0 014.375 4.374A4.382 4.382 0 0135 24.934zm0-7.5a3.127 3.127 0 00-3.125 3.124A3.13 3.13 0 0035 23.684a3.13 3.13 0 003.124-3.126 3.128 3.128 0 00-3.125-3.125z"/><path d="M35 21.184a.625.625 0 01-.624-.625l-.001-1.875a.625.625 0 111.25 0v1.875a.624.624 0 01-.624.625zm-3.75.002h-1.875a.625.625 0 110-1.25h1.875a.625.625 0 110 1.25zm-.18-9.174a.627.627 0 01-.629-.625c0-.346.277-.625.622-.625h.006a.625.625 0 110 1.25z"/><path d="M31.05 13.887a4.38 4.38 0 01-4.374-4.376 4.38 4.38 0 014.374-4.374 4.38 4.38 0 014.374 4.374 4.382 4.382 0 01-4.373 4.376zm0-7.5a3.128 3.128 0 00-3.124 3.124 3.128 3.128 0 003.124 3.127 3.13 3.13 0 003.124-3.127 3.128 3.128 0 00-3.124-3.124z"/><path d="M31.052 10.137a.625.625 0 01-.625-.624l-.001-1.876a.625.625 0 111.25-.001v1.876c0 .345-.28.625-.624.625zm-3.982 3.977a.625.625 0 01-.441-1.067l1.326-1.325a.625.625 0 11.884.884l-1.327 1.325a.624.624 0 01-.442.183zm-7.047-6.68a.627.627 0 01-.628-.625c0-.346.276-.625.62-.625h.008a.625.625 0 110 1.25z"/><path d="M20 9.31a4.38 4.38 0 01-4.375-4.377A4.38 4.38 0 0120 .56a4.38 4.38 0 014.375 4.374A4.382 4.382 0 0120 9.31zm0-7.501a3.128 3.128 0 00-3.125 3.124A3.13 3.13 0 0020 8.06a3.13 3.13 0 003.125-3.126A3.128 3.128 0 0020 1.81z"/><path d="M20 5.56a.624.624 0 01-.625-.625V3.059a.624.624 0 111.25 0v1.876c0 .345-.28.625-.625.625zm.004 5.623a.624.624 0 01-.625-.625V8.684a.625.625 0 111.25 0v1.874c0 .346-.28.625-.625.625zm-11.028.825a.627.627 0 01-.628-.625c0-.346.276-.625.621-.625h.007a.625.625 0 110 1.25z"/><path d="M8.953 13.886a4.345 4.345 0 01-3.094-1.283 4.347 4.347 0 01-1.28-3.094 4.38 4.38 0 014.373-4.374 4.38 4.38 0 014.374 4.374 4.381 4.381 0 01-4.373 4.377zm0-7.501a3.128 3.128 0 00-2.21 5.335c.59.59 1.374.916 2.209.916a3.13 3.13 0 003.124-3.127 3.128 3.128 0 00-3.124-3.124z"/><path d="M8.953 10.136a.624.624 0 01-.625-.625V7.635a.624.624 0 111.25 0V9.51c0 .345-.28.625-.625.625zm3.978 3.977a.624.624 0 01-.442-.183l-1.325-1.326a.625.625 0 11.883-.884l1.326 1.326a.624.624 0 01-.442 1.067z"/></g><defs><clipPath id="clip0"><path fill="#fff" transform="translate(0 .559)" d="M0 0h40v40H0z"/></clipPath></defs></svg>