<svg width="40" height="41" fill="none" xmlns="http://www.w3.org/2000/svg"><g clip-path="url(#clip0)" fill="#FCFCFC"><path d="M28.428 21.204c.383 0 .754.112 1.073.325l4.506 3.004a3.222 3.222 0 001.79.542H40v-1.29h-4.203a1.93 1.93 0 01-1.074-.326l-1.82-1.213V.559H8.387v3.87H0v36.13h24.516v-3.871h8.387V31.26c.04-.01.083-.013.123-.023l3.002-.75a8.395 8.395 0 012.037-.251H40v-1.29h-1.935a9.7 9.7 0 00-2.35.289l-3.001.75a8.437 8.437 0 01-4.692-.18l-1.087-.363a9.672 9.672 0 00-3.064-.496h-5.63c0-1.067.869-1.936 1.936-1.936h7.096a1.938 1.938 0 001.936-1.935c0-.99-.75-1.799-1.709-1.913l.53-1.958h.398zm-.815 9.825c.99.33 2.02.497 3.064.497.313 0 .625-.027.936-.057v3.928h-7.097v-2.11c.227-.261.402-.57.496-.92l.529-1.957c.332.068.661.149.985.257l1.087.362zm-3.365-.778l-.481 1.78a1.066 1.066 0 01-1.027.786h-.21a1.064 1.064 0 01-1.026-1.341l.335-1.24h2.032c.126 0 .251.01.377.015zm-3.745-.015l-.244.902a2.346 2.346 0 001.108 2.648l-.203.81 1.252.312.2-.801h.124c.166 0 .328-.023.486-.057v5.218H1.29V5.72h8.387V1.849h21.936v19.537l-1.396-.93a3.22 3.22 0 00-1.79-.543h-.049l2.685-9.934a2.356 2.356 0 00-2.272-2.968h-.21a2.358 2.358 0 00-2.271 1.74l-1.794 6.635V4.43H10.968v1.29h12.258v14.193H21.89a3.19 3.19 0 00-1.916.646h-6.427v1.29h5.071l-1.29 1.29h-3.78v1.29h2.49l-1.078 1.079a2.016 2.016 0 001.424 3.438c.199 0 .39-.038.576-.094 0 .032-.01.062-.01.094 0 .711.58 1.29 1.29 1.29h2.262zm4.97-4.516H23.06l2.724-10.08 2.213.737-2.525 9.343zm-4.95-3.95c.36-.36.859-.566 1.368-.566h1.053l-.526 1.947a3.196 3.196 0 00-2.162.933l-3.36 3.359a.724.724 0 01-1.023-1.023l4.65-4.65zm.645 3.226c.244-.244.554-.41.885-.497l-.33 1.22h-1.278l.723-.723zm8.65-15.354l-.79 2.923-2.214-.737.74-2.74a1.066 1.066 0 011.028-.787h.209a1.064 1.064 0 011.026 1.34zm-3.34 3.433l2.212.738-.356 1.316-2.213-.737.356-1.317zm.795 11.355a.646.646 0 010 1.29h-.465l.35-1.29h.115z"/><path d="M19.356 7.01H2.582v6.451h16.774V7.01zm-1.29 5.161H3.872v-3.87h14.194v3.87z"/><path d="M5.16 9.592h1.29v1.29H5.16v-1.29zm2.582 0h1.29v1.29h-1.29v-1.29zm2.582 0h1.29v1.29h-1.29v-1.29zm2.578 0h1.29v1.29h-1.29v-1.29zm2.582 0h1.29v1.29h-1.29v-1.29zm-5.16 11.611h-1.29v2.58H3.872v-5.16h3.871v-1.291H2.582v7.742h7.742v-3.871z"/><path d="M12.449 14.941l-5.995 5.996-.835-.834-.912.912 1.747 1.747 6.907-6.908-.912-.913zM9.034 34.752H3.872v-5.16h3.871V28.3H2.582v7.742h7.742v-3.871h-1.29v2.58z"/><path d="M5.62 31.07l-.913.912 1.747 1.746 6.907-6.908-.912-.912-5.995 5.996-.835-.834zm15.025 4.973h1.29v1.29h-1.29v-1.29zm-8.387 0h7.097v1.29h-7.097v-1.29zm1.289-18.064h8.387v1.29h-8.387v-1.29z"/></g><defs><clipPath id="clip0"><path fill="#fff" transform="translate(0 .559)" d="M0 0h40v40H0z"/></clipPath></defs></svg>