<svg width="40" height="41" fill="none" xmlns="http://www.w3.org/2000/svg"><g clip-path="url(#clip0)"><path d="M39.414 4.778A.586.586 0 0040 4.192V1.145a.586.586 0 00-.586-.586H.586A.586.586 0 000 1.145v3.047c0 .323.262.586.586.586h1.336v31.561H.586a.586.586 0 00-.586.586v3.048c0 .323.262.586.586.586h38.828a.586.586 0 00.586-.586v-3.048a.586.586 0 00-.586-.586h-1.336V4.778h1.336zM1.172 1.73h37.656v1.876h-5.39a.586.586 0 000 1.172h.617v31.561h-.758v-8.307a4.286 4.286 0 00-3.702-4.24V4.778h1.108a.586.586 0 100-1.172H1.172V1.73zm13.256 34.61v-3.025h6.264a.586.586 0 000-1.172h-6.264V29.12h11.144v3.024h-2.146a.586.586 0 000 1.172h2.146v3.024H14.428zm-6.553 0v-3.025h2.53v3.024h-2.53zm0-7.22h2.53v3.023h-2.53V29.12zm2.53-1.173H7.878a3.114 3.114 0 012.529-2.97v2.97zm1.173-8.739a.586.586 0 10-1.172 0v4.584a4.286 4.286 0 00-3.703 4.24v8.307h-.758V4.778h4.46v11.618a.586.586 0 001.173 0V4.778h1.679v31.561h-1.68V19.21zm13.994-14.43v3.077A6.752 6.752 0 0020 4.907a6.752 6.752 0 00-5.572 2.947V4.778h11.144zM17.45 26.89a3.577 3.577 0 01-1.007-1.973 1.116 1.116 0 001.008-1.11V22.71c.897.464 1.816.739 2.55.739.734 0 1.653-.275 2.55-.739v1.1c0 .578.443 1.055 1.008 1.109a3.606 3.606 0 01-6.109 1.973zm8.123-3.14h-1.85v-1.77c.733-.542 1.379-1.195 1.85-1.962v3.733zm-.016-11.691l-.418 5.684c-.19 2.573-3.536 4.532-5.138 4.532-1.602 0-4.948-1.96-5.137-4.532l-.42-5.684A5.568 5.568 0 0120 6.08a5.567 5.567 0 015.556 5.98zm-9.278 9.92v1.771h-1.85v-3.733c.472.767 1.117 1.42 1.85 1.962zm-1.85 2.943h.832a4.738 4.738 0 001.606 3.024h-2.438v-3.024zm10.312 0h.832v3.024h-2.438a4.738 4.738 0 001.606-3.024zm2.004-20.145h1.679v31.561h-1.679V4.778zm5.379 23.17h-2.528v-2.97a3.11 3.11 0 012.528 2.97zm-2.528 1.171h2.53v3.024h-2.53V29.12zm0 4.196h2.53v3.024h-2.53v-3.024zM3.095 4.778h1.678v31.561H3.094V4.778zm35.733 34.609H1.172V37.51h37.656v1.876zm-1.922-3.048h-1.68V4.778h1.68v31.561z" fill="#FCFCFC"/></g><defs><clipPath id="clip0"><path fill="#fff" transform="translate(0 .559)" d="M0 0h40v40H0z"/></clipPath></defs></svg>