<svg width="40" height="41" fill="none" xmlns="http://www.w3.org/2000/svg"><g clip-path="url(#clip0)" fill="#FCFCFC"><path d="M39.351 26.959a.594.594 0 00.594-.594V12.029c0-.813-.316-1.578-.891-2.155a3.033 3.033 0 00-2.154-.89h-6.759V1.152a.594.594 0 00-.594-.593H15.04a.594.594 0 00-.594.593v8.424a.594.594 0 101.188 0v-7.83h13.32v7.238h-6.562a3.032 3.032 0 00-2.85 1.979 2.86 2.86 0 00-.411-.03H6.137a.594.594 0 100 1.188H19.13c.918 0 1.666.747 1.666 1.666v23.918c0 .918-.748 1.666-1.666 1.666H2.932a1.668 1.668 0 01-1.666-1.666V13.787c0-.919.748-1.667 1.666-1.667h1.225a.594.594 0 100-1.187H2.932a2.857 2.857 0 00-2.854 2.854v23.918a2.857 2.857 0 002.854 2.854h16.199a2.857 2.857 0 002.854-2.854V15.074h2.266v22.457c0 .328.266.594.594.594h14.507a.594.594 0 00.593-.594v-9.186a.594.594 0 10-1.188 0v8.592H25.44V12.029c0-.68-.222-1.326-.63-1.857H36.9a1.85 1.85 0 011.857 1.857v14.336c0 .328.266.594.594.594zM23.707 10.714c.35.352.544.818.544 1.315v1.857h-2.266v-.1a2.854 2.854 0 00-1.33-2.41 1.846 1.846 0 011.738-1.204h.002c.495 0 .962.193 1.312.542z"/><path d="M19.608 13.902a.594.594 0 00-.594-.593H3.047a.594.594 0 00-.594.594v5.874c0 .328.266.595.594.595h15.967a.594.594 0 00.594-.595v-5.875zm-1.188 5.281H3.641v-4.687h14.78v4.687zm.594 2.505H3.047a.594.594 0 00-.594.593v15.372c0 .328.266.594.594.594h15.967a.594.594 0 00.594-.594V22.281a.594.594 0 00-.594-.593zm-.594 5.253h-4.023v-4.066h4.023v4.066zm0 4.865h-4.023v-3.678h4.023v3.678zM3.641 28.128h4.023v3.678H3.641v-3.678zm5.211 0h4.357v3.678H8.852v-3.678zm4.357-5.253v4.066H8.852v-4.066h4.357zm-5.545 0v4.066H3.641v-4.066h4.023zM3.641 32.994h4.023v4.065H3.641v-4.065zm5.211 4.065v-4.065h4.357v4.065H8.852zm5.545 0v-4.065h4.023v4.065h-4.023zM28.748 11.99h-1.584a.594.594 0 100 1.188h1.584a.594.594 0 000-1.188zm8.313 0h-6.256a.594.594 0 100 1.188h6.256a.594.594 0 100-1.188zm-8.313 13.385h-1.584a.594.594 0 000 1.188h1.584a.594.594 0 000-1.188zm8.907.595a.594.594 0 00-.594-.595h-6.256a.594.594 0 000 1.188h6.256a.594.594 0 00.594-.594zm-8.907-3.94h-1.584a.594.594 0 100 1.187h1.584a.594.594 0 000-1.188zm8.313 0h-6.256a.594.594 0 100 1.187h6.256a.594.594 0 100-1.188zm-8.313-3.346h-1.584a.594.594 0 100 1.187h1.584a.594.594 0 000-1.187zm8.313 0h-6.256a.594.594 0 100 1.187h6.256a.594.594 0 100-1.187zm-8.313-3.346h-1.584a.594.594 0 100 1.188h1.584a.594.594 0 000-1.188zm8.313 0h-6.256a.594.594 0 100 1.188h6.256a.594.594 0 100-1.188zM17.344 4.516h1.584a.594.594 0 000-1.188h-1.584a.594.594 0 100 1.188zm3.641 0h6.256a.594.594 0 000-1.188h-6.256a.594.594 0 000 1.188zm-3.641 3.346h1.584a.594.594 0 000-1.188h-1.584a.594.594 0 100 1.188zm3.641 0h6.256a.594.594 0 000-1.188h-6.256a.594.594 0 000 1.188zm11.132 27.482c.06.056.146.088.236.088h.014a.408.408 0 00.408-.408v-.086c.927-.199 1.458-.84 1.458-1.762 0-1.043-.7-1.46-1.458-1.754V29.96c.244.039.408.122.54.19.115.057.205.103.306.103.322 0 .462-.395.462-.596 0-.429-.672-.628-1.308-.671v-.089a.408.408 0 00-.815 0v.114c-.972.163-1.529.756-1.529 1.63 0 1.075.88 1.413 1.529 1.657v1.642c-.358-.068-.591-.249-.78-.395-.152-.119-.273-.213-.412-.213-.278 0-.487.367-.487.604 0 .449.689.986 1.679 1.048v.04c0 .127.058.244.157.32zm-.157-5.336v1.104c-.248-.114-.472-.266-.472-.58 0-.251.163-.432.472-.524zm.815 3.877v-1.241c.277.163.4.362.4.64a.616.616 0 01-.4.601z"/><path d="M15.879 18.485h1.267a.594.594 0 000-1.188H15.88a.594.594 0 000 1.188z"/></g><defs><clipPath id="clip0"><path fill="#fff" transform="translate(0 .559)" d="M0 0h40v40H0z"/></clipPath></defs></svg>