<svg width="40" height="41" fill="none" xmlns="http://www.w3.org/2000/svg"><path d="M38.47 16.584l-.872-.923-3.06-8.248a3.589 3.589 0 00-3.341-2.325H9.342c-1.487 0-2.82.932-3.342 2.325l-3.017 8.145-1.257 1.162A4.91 4.91 0 000 20.455v12.017a3.573 3.573 0 003.573 3.556h2.256a3.573 3.573 0 003.573-3.556V30.73h21.196v1.743a3.573 3.573 0 003.573 3.556h2.256A3.573 3.573 0 0040 32.472V20.14a4.956 4.956 0 00-1.53-3.555zM7.607 7.994a1.849 1.849 0 011.735-1.197h21.863c.77 0 1.462.479 1.735 1.197l2.667 7.18h-1.992a5.854 5.854 0 00-6.658-4.94 5.857 5.857 0 00-4.94 4.94H4.94l2.667-7.18zm24.265 7.18h-8.128a4.156 4.156 0 014.923-3.214 4.162 4.162 0 013.205 3.213zM7.692 32.471A1.859 1.859 0 015.83 34.32H3.573a1.859 1.859 0 01-1.864-1.847v-2.239c.513.334 1.188.496 1.864.496h4.12v1.743zm30.599 0a1.859 1.859 0 01-1.864 1.847h-2.256a1.864 1.864 0 01-1.863-1.847V30.73h4.12c.675 0 1.35-.162 1.863-.496v2.24zm-1.864-3.453H3.573a1.844 1.844 0 01-1.864-1.828v-6.736c0-.94.42-1.837 1.137-2.444l.034-.034 1.163-1.094H36.41l.82.88c.01.017.035.026.044.043a3.222 3.222 0 011.008 2.333v7.052h.009a1.85 1.85 0 01-1.864 1.829z" fill="#FCFCFC"/><path d="M11.28 20.303H4.87a.857.857 0 00-.854.854v4.445c0 .47.384.855.854.855h6.41c.47 0 .855-.385.855-.855v-4.445a.857.857 0 00-.854-.854zm-.854 4.444H5.725v-2.735h4.7v2.735zm24.702-4.444h-6.41a.857.857 0 00-.855.854v4.445c0 .47.385.855.855.855h6.41c.47 0 .855-.385.855-.855v-4.445a.857.857 0 00-.855-.854zm-.855 4.444h-4.7v-2.735h4.7v2.735zm-10.146-.854H15.87a.857.857 0 00-.854.854c0 .47.384.855.854.855h8.257c.47 0 .854-.385.854-.855a.857.857 0 00-.854-.854zm0-2.651H15.87a.857.857 0 00-.854.855c0 .47.384.855.854.855h8.257c.47 0 .854-.385.854-.855a.857.857 0 00-.854-.855z" fill="#FCFCFC"/></svg>