<svg width="40" height="41" fill="none" xmlns="http://www.w3.org/2000/svg"><g clip-path="url(#clip0)" fill="#FCFCFC"><path d="M38.812 14.813l-4.917-4.104V4.887c0-.502-.439-.886-.95-.886h-7.157l-2.87-2.395a4.565 4.565 0 00-5.83.01L14.218 4H6.97c-.502 0-.95.374-.95.886V10.8l-4.826 4.013a.904.904 0 00-.31.704h.018V35.98c0 2.522 2.029 4.579 4.542 4.579h29.11c2.522 0 4.541-2.066 4.541-4.58V15.518h.019a.83.83 0 00-.302-.704zm-4.917-1.728l2.879 2.395-2.879 2.139v-4.534zM18.257 3.014a2.744 2.744 0 013.5.009L22.92 4h-5.84l1.178-.987zM7.847 5.829h24.22V18.98l-10.41 7.75a2.784 2.784 0 01-3.299 0l-10.51-7.823V5.83zM6.02 13.168v4.378L3.232 15.47l2.788-2.303zM37.277 35.97a2.736 2.736 0 01-2.715 2.76H5.444a2.734 2.734 0 01-2.715-2.751V17.335l14.55 10.867a4.58 4.58 0 005.448 0l14.55-10.867v18.636z"/><path d="M19.271 13.14h-4.935a.917.917 0 00-.914.915c0 .502.411.914.914.914h4.935a.917.917 0 00.914-.914.917.917 0 00-.914-.914zm6.398 4.57H14.336a.917.917 0 00-.914.915c0 .503.411.914.914.914h11.333a.917.917 0 00.914-.914.917.917 0 00-.914-.914z"/></g><defs><clipPath id="clip0"><path fill="#fff" transform="translate(0 .559)" d="M0 0h40v40H0z"/></clipPath></defs></svg>