<svg width="40" height="41" fill="none" xmlns="http://www.w3.org/2000/svg"><g clip-path="url(#clip0)" fill="#FCFCFC"><path d="M19.999 35.226a2.67 2.67 0 01-2.667-2.667 2.67 2.67 0 012.667-2.666 2.67 2.67 0 012.666 2.666A2.67 2.67 0 0120 35.226zm0-4c-.736 0-1.334.598-1.334 1.333a1.335 1.335 0 002.667 0c0-.735-.598-1.333-1.333-1.333z"/><path d="M30.668 40.559H9.335a.666.666 0 01-.667-.667V25.225c0-.368.299-.666.667-.666h21.333c.368 0 .667.298.667.666v14.667a.666.666 0 01-.667.667zm-20.667-1.334h20V25.892h-20v13.333z"/><path d="M25.336 37.891H14.669a.667.667 0 01-.666-.666c0-1.103-.898-2-2-2a.667.667 0 01-.667-.667v-4c0-.369.299-.667.667-.667 1.102 0 2-.897 2-2 0-.368.298-.666.666-.666h10.667c.368 0 .667.298.667.666 0 1.103.897 2 2 2 .368 0 .666.298.666.667v4a.667.667 0 01-.666.667c-1.103 0-2 .897-2 2a.667.667 0 01-.667.666zm-10.067-1.333h9.467a3.342 3.342 0 012.6-2.6v-2.8a3.342 3.342 0 01-2.6-2.6h-9.467a3.342 3.342 0 01-2.6 2.6v2.8a3.342 3.342 0 012.6 2.6zm12.732-17.333H13.335a.666.666 0 01-.667-.667V7.225c0-.2.09-.39.245-.516l7.333-6a.67.67 0 01.845 0l7.333 6a.669.669 0 01.244.516v11.333a.667.667 0 01-.667.667zm-14-1.333h13.334V7.542l-6.667-5.456-6.667 5.455v10.35z"/><path d="M22.667 19.225h-4a.667.667 0 01-.667-.667V11.89c0-.368.299-.666.667-.666h4c.368 0 .666.298.666.666v6.667a.666.666 0 01-.666.667zm-3.334-1.334H22v-5.333h-2.667v5.333zm-9.334-7.333a.666.666 0 01-.42-1.184L20.245.708a.666.666 0 11.84 1.035L10.42 10.41a.665.665 0 01-.42.148z"/><path d="M31.333 10.558a.662.662 0 01-.42-.149L20.247 1.742a.667.667 0 01.84-1.035l10.666 8.667a.667.667 0 01-.42 1.184zM36 31.225a.665.665 0 01-.475-1.134c2.066-2.1 3.21-4.9 3.139-7.68-.064-2.496-1.097-4.785-2.908-6.446l-1.567-1.61a.666.666 0 11.956-.928l1.54 1.582c2.053 1.88 3.239 4.508 3.312 7.368.081 3.14-1.203 6.293-3.521 8.649a.667.667 0 01-.475.199z"/><path d="M38.668 15.225a.628.628 0 01-.11-.01l-4-.666a.667.667 0 01.218-1.315l4 .667a.667.667 0 01-.108 1.324z"/><path d="M35.332 19.224a.666.666 0 01-.659-.572l-.666-4.667a.667.667 0 011.32-.188l.666 4.666a.667.667 0 01-.66.761zM5.334 31.225a.667.667 0 01-.478-.202l-1.54-1.582C1.263 27.559.076 24.933.004 22.072c-.081-3.14 1.203-6.293 3.52-8.649a.668.668 0 01.952.935c-2.066 2.1-3.21 4.899-3.14 7.68.065 2.495 1.098 4.785 2.909 6.446l1.567 1.609a.667.667 0 01-.478 1.132z"/><path d="M5.336 31.225a.628.628 0 01-.11-.01l-4-.666a.667.667 0 01.218-1.315l4 .667a.667.667 0 01-.108 1.324z"/><path d="M5.332 31.226a.666.666 0 01-.659-.572l-.666-4.667a.667.667 0 011.32-.188l.666 4.666a.667.667 0 01-.66.76zm24.669-12H11.335a.666.666 0 110-1.333H30a.666.666 0 110 1.333zm-8-10.001h-2.666a.666.666 0 01-.667-.667V5.89c0-.368.299-.666.667-.666H22c.368 0 .667.298.667.666v2.667a.667.667 0 01-.667.667zm-2-1.334h1.334V6.558H20V7.89z"/></g><defs><clipPath id="clip0"><path fill="#fff" transform="translate(0 .559)" d="M0 0h40v40H0z"/></clipPath></defs></svg>