<svg width="40" height="41" fill="none" xmlns="http://www.w3.org/2000/svg"><path d="M39.202 12.157L31.06 4.014a2.715 2.715 0 00-1.93-.8 2.71 2.71 0 00-1.93.8l-1.913 1.914a2.71 2.71 0 00-.636 1.009l-8.953-1.603h-.002c-4.026-.8-7.956 1.818-8.768 5.844l-.413 2.048a4.19 4.19 0 003.276 4.93 4.19 4.19 0 004.929-3.276l.252-1.253 4.015.351L29.47 24.463l1.9 1.9a.988.988 0 01-1.396 1.396l-5.089-5.09a.908.908 0 00-1.284 1.283l5.09 5.09a.98.98 0 01.29.698.988.988 0 01-1.685.698l-5.09-5.09a.908.908 0 10-1.284 1.284l5.09 5.09a.988.988 0 01-1.396 1.395l-5.09-5.09a.908.908 0 00-1.284 1.284l5.09 5.09a.988.988 0 01-1.396 1.396L3.929 17.787 1.55 15.41a.908.908 0 10-1.284 1.284l2.378 2.379 2.588 2.588-1.426 1.427a2.457 2.457 0 00-.725 1.748c0 .661.257 1.282.725 1.75l.465.465c.409.409.935.656 1.502.712.056.568.304 1.094.712 1.502l.466.466c.42.419.953.655 1.501.71.056.568.304 1.095.713 1.503l.465.466c.409.409.935.656 1.502.712.056.568.304 1.094.712 1.502l.466.466a2.465 2.465 0 001.749.723c.633 0 1.267-.241 1.749-.723l1.427-1.427 3.419 3.419c.53.53 1.233.82 1.981.82a2.78 2.78 0 001.982-.82 2.78 2.78 0 00.815-1.864 2.79 2.79 0 002.678-2.68 2.789 2.789 0 002.68-2.68 2.788 2.788 0 001.866-.815 2.806 2.806 0 000-3.963l-1.258-1.258L36 19.217l3.201-3.2a2.733 2.733 0 000-3.86zM5.09 25.3a.658.658 0 010-.93l1.337-1.338 1.396 1.396-1.338 1.338a.658.658 0 01-.93 0L5.09 25.3zm2.68 2.68a.658.658 0 010-.93l1.337-1.338 1.396 1.396-1.338 1.338a.659.659 0 01-.93 0l-.466-.466zm2.679 2.68a.653.653 0 010-.93l1.338-1.338 1.395 1.395-1.338 1.338a.659.659 0 01-.93 0l-.465-.465zm4.075 3.145a.659.659 0 01-.93 0l-.466-.466a.658.658 0 010-.93l1.338-1.338 1.396 1.396-1.338 1.338zm15.59-11.268L20.036 12.46a.907.907 0 00-.563-.263l-5.152-.45a.908.908 0 00-.969.725l-.413 2.048a2.371 2.371 0 01-4.296.843 2.354 2.354 0 01-.349-1.78l.413-2.047a5.651 5.651 0 016.65-4.42l.02.004 8.822 1.58 1.087 1.086 8.788 8.788-3.962 3.962zm7.804-7.805l-2.56 2.56-8.788-8.789a.907.907 0 01-.267-.646.91.91 0 01.267-.646l1.914-1.913a.907.907 0 01.645-.268c.244 0 .474.095.646.268l8.143 8.142a.908.908 0 01.267.646.908.908 0 01-.267.646z" fill="#FCFCFC"/><path d="M35.72 15.355a.908.908 0 100-1.816.908.908 0 000 1.816z" fill="#FCFCFC"/></svg>