<svg width="40" height="41" fill="none" xmlns="http://www.w3.org/2000/svg"><g clip-path="url(#clip0)" fill="#FCFCFC"><path d="M37.527 39.21h-1.123V3.93a.674.674 0 00-.675-.675H23.146a.674.674 0 00-.674.674v2.922h-1.348V3.929a.674.674 0 00-.674-.674h-2.922V1.233a.674.674 0 10-1.348 0v2.022h-2.921a.674.674 0 00-.674.674v2.922H10.56a.674.674 0 00-.674.674v5.618H4.269a.674.674 0 00-.674.674V39.21H2.47a.674.674 0 100 1.349h35.056a.674.674 0 100-1.349zM13.932 4.604h5.842V6.85h-5.842V4.604zM11.684 39.21h-.449v-1.123a.674.674 0 00-1.348 0v1.123h-.45v-2.247h2.248v2.247zm4.495-17.303V39.21h-3.146v-2.92a.674.674 0 00-.674-.674H8.763a.674.674 0 00-.674.674v2.921H4.943v-24.72h11.236v7.416zm.674-8.764h-5.618V8.199h11.236v13.034h-4.944v-2.248h2.023a.674.674 0 100-1.348h-2.023V15.39h2.023a.674.674 0 100-1.348h-2.023v-.225a.674.674 0 00-.674-.674zm11.91 26.067H17.527V22.581h11.236v16.63zm6.292 0h-4.944V21.008a.674.674 0 10-1.348 0v.225h-1.348v-.225a.674.674 0 10-1.348 0v.225H23.82V4.604h11.235V39.21z"/><path d="M20.448 37.862a.674.674 0 00.674-.674V24.604a.674.674 0 10-1.349 0v12.584c0 .372.302.674.675.674zm2.699 0a.674.674 0 00.674-.674V24.604a.674.674 0 10-1.348 0v12.584c0 .372.302.674.674.674zm2.695 0a.674.674 0 00.674-.674V24.604a.674.674 0 10-1.348 0v12.584c0 .372.302.674.674.674zm.898-28.763a.674.674 0 00.675-.674v-.9a.674.674 0 10-1.349 0v.9c0 .372.302.674.675.674zm2.696 0a.674.674 0 00.674-.674v-.9a.674.674 0 10-1.348 0v.9c0 .372.302.674.674.674zm2.699 0a.674.674 0 00.674-.674v-.9a.674.674 0 10-1.348 0v.9c0 .372.302.674.674.674zm-5.395 4.494a.674.674 0 00.675-.674v-.9a.674.674 0 00-1.349 0v.9c0 .372.302.674.675.674zm2.696 0a.674.674 0 00.674-.674v-.9a.674.674 0 10-1.348 0v.9c0 .372.302.674.674.674zm2.699 0a.674.674 0 00.674-.674v-.9a.674.674 0 10-1.348 0v.9c0 .372.302.674.674.674zm-5.395 4.494a.674.674 0 00.675-.674v-.899a.674.674 0 00-1.349 0v.899c0 .372.302.674.675.674zm2.696 0a.674.674 0 00.674-.674v-.899a.674.674 0 10-1.348 0v.899c0 .372.302.674.674.674zm2.699 0a.674.674 0 00.674-.674v-.899a.674.674 0 10-1.348 0v.899c0 .372.302.674.674.674zM7.866 19.884a.674.674 0 00.674-.674v-.9a.674.674 0 10-1.349 0v.9c0 .372.302.674.675.674zm2.694 0a.674.674 0 00.675-.674v-.9a.674.674 0 10-1.348 0v.9c0 .372.301.674.674.674zm2.696 0a.674.674 0 00.674-.674v-.9a.674.674 0 10-1.348 0v.9c0 .372.302.674.674.674zm-5.39 4.494a.674.674 0 00.674-.674v-.899a.674.674 0 10-1.349 0v.899c0 .372.302.674.675.674zm2.694 0a.674.674 0 00.675-.674v-.899a.674.674 0 10-1.348 0v.899c0 .372.301.674.674.674zm2.696 0a.674.674 0 00.674-.674v-.899a.674.674 0 10-1.348 0v.899c0 .372.302.674.674.674zm-5.39 4.496a.674.674 0 00.674-.674v-.899a.674.674 0 10-1.349 0v.899c0 .372.302.674.675.674zm2.694 0a.674.674 0 00.675-.674v-.899a.674.674 0 10-1.348 0v.899c0 .372.301.674.674.674zm2.696 0a.674.674 0 00.674-.674v-.899a.674.674 0 10-1.348 0v.899c0 .372.302.674.674.674zm-5.39 4.494a.674.674 0 00.674-.674v-.899a.674.674 0 10-1.349 0v.9c0 .372.302.673.675.673zm2.694 0a.674.674 0 00.675-.674v-.899a.674.674 0 10-1.348 0v.9c0 .372.301.673.674.673zm2.696 0a.674.674 0 00.674-.674v-.899a.674.674 0 10-1.348 0v.9c0 .372.302.673.674.673zm18.879-10.787a.674.674 0 00.674-.674v-.899a.674.674 0 10-1.348 0v.899c0 .372.302.674.674.674zm0 4.494a.674.674 0 00.674-.674v-.899a.674.674 0 10-1.348 0v.9c0 .371.302.673.674.673zm0 4.495a.674.674 0 00.674-.675v-.899a.674.674 0 10-1.348 0v.9c0 .372.302.674.674.674zm0 4.494a.674.674 0 00.674-.675v-.899a.674.674 0 10-1.348 0v.9c0 .372.302.674.674.674zM20.222 11.12a.674.674 0 00-.674-.675h-5.393a.674.674 0 100 1.349h5.393a.674.674 0 00.674-.675z"/></g><defs><clipPath id="clip0"><path fill="#fff" transform="translate(0 .559)" d="M0 0h40v40H0z"/></clipPath></defs></svg>