<svg width="40" height="41" fill="none" xmlns="http://www.w3.org/2000/svg"><path d="M36.094 5.324H18.906A3.91 3.91 0 0015 9.23v3.907H3.906A3.91 3.91 0 000 17.043v17.969a.781.781 0 001.281.6l4.47-3.725h15.343A3.91 3.91 0 0025 27.98v-3.906h9.248l4.47 3.725A.781.781 0 0040 27.2V9.23a3.91 3.91 0 00-3.906-3.906zM23.437 27.981a2.346 2.346 0 01-2.343 2.343H5.469a.782.782 0 00-.5.181l-3.407 2.839V17.043a2.346 2.346 0 012.344-2.344h17.188a2.346 2.346 0 012.343 2.344v10.938zm15-2.45l-3.406-2.838a.782.782 0 00-.5-.181H25V18.59l.592-1.625h3.865l1.212 3.461a.782.782 0 101.475-.516L28.316 8.972a.781.781 0 00-.733-.523h-.005a.781.781 0 00-.734.514l-2.286 6.277a3.91 3.91 0 00-3.464-2.103h-4.532V9.23a2.346 2.346 0 012.344-2.343h17.188a2.346 2.346 0 012.343 2.343v16.301zM26.162 15.402l1.402-3.849 1.348 3.85h-2.75z" fill="#FCFCFC"/><path d="M8.594 20.95h4.686a.783.783 0 000-1.563h-.736l-2.461-2.854a.779.779 0 00-1.102-.081.773.773 0 00-.269.533.774.774 0 00.188.568l1.581 1.834H8.594a.782.782 0 00-.001 1.562zm7.812-1.563a.782.782 0 000 1.562c.43 0 .782-.35.782-.781a.783.783 0 00-.782-.781zm.406 4.465l-1.484-1.172a.781.781 0 00-.953-.012l-2.656 1.992-2.656-1.992a.781.781 0 10-.938 1.25l2.292 1.719-2.292 1.718a.781.781 0 00.938 1.25l2.656-1.992 2.656 1.992a.777.777 0 001.094-.156.781.781 0 00-.156-1.094l-2.292-1.718 1.81-1.358 1.013.799a.78.78 0 10.968-1.226zm-11.343-7.59h-.782c-.861 0-1.562.7-1.562 1.562v.781a.781.781 0 001.563 0v-.78h.78a.781.781 0 100-1.563zM20.313 8.45h-.782c-.861 0-1.562.7-1.562 1.562v.781a.781.781 0 101.562 0v-.781h.782a.781.781 0 100-1.563zm14.843 0h-.781a.781.781 0 000 1.562h.781v.781a.781.781 0 001.563 0v-.781c0-.862-.701-1.563-1.563-1.563zM21.094 25.637a.781.781 0 00-.782.781v.781h-.78a.781.781 0 000 1.563h.78c.862 0 1.563-.701 1.563-1.563v-.781a.781.781 0 00-.781-.781z" fill="#FCFCFC"/></svg>