<svg width="40" height="41" fill="none" xmlns="http://www.w3.org/2000/svg"><g clip-path="url(#clip0)" fill="#FCFCFC"><path d="M38.938 14.287L26.272 1.62A3.606 3.606 0 0023.705.56c-.972 0-1.884.376-2.568 1.06L1.06 21.697A3.606 3.606 0 000 24.265c0 .972.377 1.884 1.06 2.567l1.562 1.562.001.001L13.12 38.892h-1.454a.833.833 0 000 1.667h16.666a.833.833 0 000-1.667h-8.864l19.47-19.47a3.635 3.635 0 000-5.135zm-1.178 3.956L17.683 38.32a1.95 1.95 0 01-1.386.572h-.006a1.95 1.95 0 01-1.386-.572L4.39 27.805l19.281-19.28a.833.833 0 10-1.178-1.179L3.212 26.627l-.973-.973a1.95 1.95 0 01-.572-1.389c0-.527.203-1.02.572-1.39L22.315 2.8a1.95 1.95 0 011.39-.572c.526 0 1.02.203 1.389.572l4.508 4.508-19.282 19.28a.834.834 0 001.178 1.179L30.78 8.486l6.98 6.98a1.967 1.967 0 010 2.777z"/><path d="M20.53 24.627a.833.833 0 00-1.178 0l-6.557 6.557a.833.833 0 001.178 1.179l6.558-6.558a.833.833 0 000-1.178zm-2.69 6.225l-2.69 2.689a.833.833 0 001.179 1.178l2.69-2.689a.833.833 0 00-1.18-1.178zm2.476-2.475l-.353.353a.833.833 0 001.178 1.179l.354-.354a.833.833 0 00-1.179-1.178zm11.486-15.022a.833.833 0 00-1.179 0l-3.535 3.536a.834.834 0 000 1.178l2.357 2.357a.831.831 0 001.178 0l3.536-3.535a.833.833 0 000-1.179l-2.357-2.357zm-1.768 5.303l-1.178-1.178 2.356-2.357 1.179 1.179-2.357 2.357zM25.025 6.823a.83.83 0 00.589-.244l.354-.354a.833.833 0 00-1.18-1.178l-.353.354a.833.833 0 00.59 1.422zm-16.65 21.71l-.354.354A.833.833 0 009.2 30.065l.353-.353a.833.833 0 00-1.178-1.179z"/></g><defs><clipPath id="clip0"><path fill="#fff" transform="translate(0 .559)" d="M0 0h40v40H0z"/></clipPath></defs></svg>