<svg width="40" height="41" fill="none" xmlns="http://www.w3.org/2000/svg"><g clip-path="url(#clip0)"><path d="M39.63 18.695L20.808 1.863a.532.532 0 00-.107-.083 1.113 1.113 0 00-1.505-.024L.37 18.588a1.117 1.117 0 00-.09 1.572c.221.247.526.37.83.37.264 0 .527-.09.74-.28l3.39-3.036v19.63a2.8 2.8 0 002.798 2.797h5.94a2.626 2.626 0 002.624-2.624v-9.98c0-.222.181-.403.403-.403h5.998c.222 0 .403.181.403.404v9.98a2.626 2.626 0 002.624 2.623h5.94c1.563 0 2.798-1.538 2.798-3.504V17.32l3.39 3.036a1.114 1.114 0 001.571-.09 1.134 1.134 0 00-.1-1.572zm-7.091 5.488V36.12c0 .798-.395 1.284-.576 1.284h-5.94A.404.404 0 0125.62 37v-9.963a2.626 2.626 0 00-2.625-2.625h-5.997a2.626 2.626 0 00-2.625 2.625v9.98a.404.404 0 01-.403.402H8.03a.578.578 0 01-.576-.576v-21.62l12.49-11.156L32.538 15.33v8.853z" fill="#FCFCFC"/></g><defs><clipPath id="clip0"><path fill="#fff" transform="translate(0 .559)" d="M0 0h40v40H0z"/></clipPath></defs></svg>