<svg width="40" height="41" fill="none" xmlns="http://www.w3.org/2000/svg"><g clip-path="url(#clip0)" fill="#FCFCFC"><path d="M35.888 6.68a.665.665 0 00.94-.048 1.996 1.996 0 00-2.815-2.818.665.665 0 00.891.988.661.661 0 011.105.496.66.66 0 01-.17.443.665.665 0 00.05.939zm2.117 15.25H.747a.665.665 0 000 1.33h9.98v3.327a.665.665 0 001.33 0V23.26h25.948c.367 0 .665.298.665.666v14.636a.665.665 0 01-.665.666H12.058v-.666a.665.665 0 00-1.331 0v.666H1.413a.665.665 0 000 1.33h36.592A1.996 1.996 0 0040 38.562V23.926a1.996 1.996 0 00-1.996-1.996z"/><path d="M11.392 31.91a.665.665 0 00.665-.666v-1.33a.665.665 0 10-1.33 0v1.33c0 .367.297.665.665.665zm-.665 3.991a.665.665 0 001.33 0v-1.995a.665.665 0 00-1.33 0V35.9zm25.947-2.66a.665.665 0 00.665-.665v-5.323a.665.665 0 00-.665-.665h-4.657a.665.665 0 00-.665.665v5.323c0 .367.297.665.665.665h4.657zm-3.992-5.322h3.327v3.991h-3.327v-3.99zm-17.298 0h4.657a.665.665 0 000-1.331h-4.657a.665.665 0 100 1.33zm9.313 0h3.991a.665.665 0 000-1.331h-3.991a.665.665 0 100 1.33zm-9.313 2.66h4.657a.665.665 0 000-1.331h-4.657a.665.665 0 000 1.33zm0 2.661H28.69a.665.665 0 100-1.33H15.384a.665.665 0 100 1.33zm0 2.66h4.657a.665.665 0 000-1.33h-4.657a.665.665 0 100 1.33zm8.647-.664c0 .367.298.665.666.665h11.31a.665.665 0 000-1.33h-11.31a.665.665 0 00-.666.665zm.666-4.657h1.995a.665.665 0 000-1.331h-1.995a.665.665 0 100 1.33zM4.072 27.253h2.66a.665.665 0 000-1.331h-2.66a.665.665 0 000 1.33zm0 3.992h2.66a.665.665 0 000-1.33h-2.66a.665.665 0 000 1.33zm0 3.992h4.657a.665.665 0 000-1.33H4.072a.665.665 0 000 1.33zM.103 7.233c.092.356.454.57.81.479.644-.167 1.3-.284 1.963-.348L4.61 9.387l-1.796 3.597a.666.666 0 00.124.768l1.079 1.078-.595 2.975a.666.666 0 101.304.266l.665-3.326a.665.665 0 00-.182-.6l-.99-.997 1.784-3.561a.666.666 0 00-.09-.732L4.595 7.317a12.604 12.604 0 018.373 3.64l-2.976.332a.665.665 0 00-.522.959l1.72 3.44-2.798 1.68a.665.665 0 00-.326.57v1.996a.665.665 0 001.33 0v-1.62l3.004-1.802a.665.665 0 00.253-.865l-1.57-3.138 2.954-.328a12.541 12.541 0 012.678 7.74l-.004.089c0 .369.296.67.665.673a.657.657 0 00.537-.288c.01-.011.023-.015.032-.026l5.485-6.35 5.61-6.499.005-.007 3.944-4.567a3.327 3.327 0 114.74 4.67L24.052 19.43a.665.665 0 10.868 1.008l2.106-1.818 1.785 1.785a.666.666 0 00.943-.941l-1.716-1.715 5.267-4.55 2.998 6.997a.665.665 0 001.223-.524l-3.169-7.389 4.279-3.696a4.657 4.657 0 10-6.62-6.546l-3.664 4.242-9.213-3.949a.657.657 0 00-.585.03L14.32 4.716a.665.665 0 00-.148 1.052l7.848 7.846-4.074 4.717a13.897 13.897 0 00-3.02-7.179c0-.006-.008-.011-.012-.018a13.944 13.944 0 00-10.84-5.171c-.738.004-1.474.068-2.2.19l-.043.008a13.82 13.82 0 00-1.25.258.665.665 0 00-.478.814zm18.813-3.548l8.525 3.653-4.549 5.267-7.153-7.154 3.177-1.766z"/></g><defs><clipPath id="clip0"><path fill="#fff" transform="translate(0 .559)" d="M0 0h40v40H0z"/></clipPath></defs></svg>