<svg width="40" height="41" fill="none" xmlns="http://www.w3.org/2000/svg"><g clip-path="url(#clip0)" fill="#FCFCFC"><path d="M38.97 13.147a3.52 3.52 0 00-4.972 0l-3.525 3.528V7.39c0-.94-.366-1.822-1.03-2.486l-3.315-3.315a3.492 3.492 0 00-2.486-1.03H3.52A3.52 3.52 0 00.004 4.075v32.969A3.52 3.52 0 003.52 40.56h23.437a3.52 3.52 0 003.516-3.516v-10.42l8.498-8.505a3.513 3.513 0 000-4.971zM23.443 2.902c.22 0 .648-.038 1.03.344l3.314 3.314c.372.372.343.78.343 1.03h-4.688V2.902zm4.687 34.141c0 .646-.526 1.172-1.172 1.172H3.52a1.173 1.173 0 01-1.172-1.172V4.074c0-.646.525-1.172 1.172-1.172h17.578v5.86c0 .647.524 1.172 1.172 1.172h5.859v9.087l-3.458 3.46-1.656 1.657a1.172 1.172 0 00-.283.458l-1.657 4.972a1.172 1.172 0 001.482 1.482l4.972-1.657a1.16 1.16 0 00.458-.283l.142-.142v8.075zM25.5 24.967l1.657 1.657-.633.633-2.486.829.829-2.486.633-.633zm3.314 0l-1.657-1.658 5.633-5.638 1.657 1.658-5.633 5.638zm8.498-8.505l-1.208 1.209-1.657-1.658 1.208-1.21a1.171 1.171 0 111.657 1.658z"/><path d="M22.266 12.277H5.859a1.172 1.172 0 000 2.344h16.407a1.172 1.172 0 000-2.344zm-4.688 4.688H5.86a1.172 1.172 0 000 2.344h11.72a1.172 1.172 0 000-2.344zm0 4.687H5.86a1.172 1.172 0 000 2.344h11.72a1.172 1.172 0 000-2.344zm0 4.688H5.86a1.172 1.172 0 000 2.344h11.72a1.172 1.172 0 000-2.344zm4.688 7.187h-7.032a1.172 1.172 0 000 2.344h7.032a1.172 1.172 0 000-2.344z"/></g><defs><clipPath id="clip0"><path fill="#fff" transform="translate(0 .559)" d="M0 0h40v40H0z"/></clipPath></defs></svg>