<svg width="40" height="41" fill="none" xmlns="http://www.w3.org/2000/svg"><path d="M37.189 5.893H2.81A2.815 2.815 0 000 8.703v23.713a2.815 2.815 0 002.811 2.81H37.19a2.815 2.815 0 002.81-2.81V8.704a2.815 2.815 0 00-2.811-2.811zM2 11.226a.667.667 0 00.667-.667h2.666a.667.667 0 001.334 0h2.666a.667.667 0 001.334 0h2.666a.667.667 0 001.334 0h2.666a.667.667 0 001.334 0h2.666a.667.667 0 001.334 0h2.666a.667.667 0 001.334 0h2.666a.667.667 0 001.334 0h2.666a.667.667 0 001.334 0h2.666a.667.667 0 001.334 0v4a.667.667 0 00-1.334 0h-2.666a.667.667 0 00-1.334 0h-2.666a.667.667 0 00-1.334 0h-2.666a.667.667 0 00-1.334 0h-2.666a.667.667 0 00-1.334 0h-2.666a.667.667 0 00-1.334 0h-2.666a.667.667 0 00-1.334 0h-2.666a.667.667 0 00-1.334 0H6.667a.667.667 0 00-1.334 0H2.667a.667.667 0 00-1.334 0v-4c0 .368.299.667.667.667zm36.667 21.189a1.48 1.48 0 01-1.478 1.478H2.81a1.48 1.48 0 01-1.478-1.478V15.893h37.334v16.522zM1.333 9.225v-.521a1.48 1.48 0 011.478-1.478H37.19a1.48 1.48 0 011.478 1.478v.522H1.333z" fill="#FCFCFC"/><path d="M33.766 31.893h2.9V17.227H22v14.666h11.766zM26 30.56v-.003c0-.29.158-.556.387-.682l1.719-.846c.346-.172.56-.518.56-.904v-.948l-.402-.174c-.607-.261-1.004-.767-1.213-1.547l-.095-.355-.35-.11a.224.224 0 01-.16-.208v-.445c0-.094.063-.161.122-.193l.313-.166.038-.354a3.88 3.88 0 01.26-1.08 6.65 6.65 0 01.146-.331c.104-.222.166-.386.189-.57a3.48 3.48 0 001.627.238c.063-.005.128-.008.194-.008 1.946 0 2.312.89 2.414 1.759l.042.348.31.164c.059.03.123.098.123.193v.445a.224.224 0 01-.16.208l-.35.11-.096.355c-.209.78-.605 1.287-1.213 1.547l-.405.174v.952c0 .38.21.725.55.898l1.68.858c.26.13.425.387.436.676H26v-.001zm-2.667-12h12v12h-1.335a2.113 2.113 0 00-1.17-1.867l-1.411-.721c.649-.415 1.117-1.04 1.396-1.867.456-.278.743-.772.743-1.323v-.445c0-.451-.197-.872-.529-1.163-.238-1.265-1.096-2.634-3.693-2.634-.102 0-.203.004-.3.012-.35.027-.857 0-1.291-.292a1.513 1.513 0 01-.358-.307.752.752 0 00-.882-.232.749.749 0 00-.462.784c.02.172.049.372.093.59.056.282.06.362.057.383-.006.023-.044.106-.074.173-.047.1-.104.223-.172.388-.145.352-.25.736-.314 1.146a1.544 1.544 0 00-.518 1.153v.445c0 .55.287 1.045.743 1.322.278.824.743 1.448 1.389 1.862l-1.47.725a2.123 2.123 0 00-1.108 1.865v.003h-1.334v-12zM3.999 19.892h6a.666.666 0 100-1.333h-6a.666.666 0 100 1.333zm8.668 0h6a.666.666 0 100-1.333h-6a.666.666 0 100 1.333zm-8.668 3.334h.666a.666.666 0 100-1.333H4a.666.666 0 100 1.333zm4.669 0a.666.666 0 100-1.333H7.335a.666.666 0 100 1.333h1.333zm2.667 0H12a.666.666 0 100-1.333h-.666a.666.666 0 100 1.333zm4.665 0a.666.666 0 100-1.333h-1.333a.666.666 0 100 1.333H16zm2.193-1.141a.683.683 0 00-.193.474c0 .18.073.346.193.473a.7.7 0 00.474.193.701.701 0 00.473-.193c.12-.127.193-.3.193-.473a.7.7 0 00-.193-.474.698.698 0 00-.947 0zM7.768 25.492c-1.46.76-1.952 2.214-2.13 3.721l-.828-.693c-.653-.547-1.601.39-.943.942l1.871 1.568c.439.368 1.118.135 1.138-.472.049-1.444.117-3.16 1.565-3.915.762-.396.088-1.547-.673-1.151z" fill="#FCFCFC"/><path d="M16.605 27.475c-.972-.062-2.394 1.436-3.144.102a.675.675 0 00-.912-.24c-.944.58-2.178 1.413-3.17.334-.582-.633-1.523.312-.943.942 1.247 1.356 2.85.943 4.266.176a2.19 2.19 0 001.225.72c.529.107 2.683-.76 2.8-.6.501.686 1.659.021 1.151-.674-.345-.47-.663-.722-1.273-.76zm11.394-14.249a.667.667 0 100-1.334.667.667 0 000 1.334zm4 0a.667.667 0 100-1.334.667.667 0 000 1.334zm-16 0a.667.667 0 100-1.334.667.667 0 000 1.334zm4 0a.667.667 0 100-1.334.667.667 0 000 1.334zm4 0a.667.667 0 100-1.334.667.667 0 000 1.334zm12 0a.667.667 0 100-1.334.667.667 0 000 1.334zm-24 0a.667.667 0 100-1.334.667.667 0 000 1.334zm-8 0a.667.667 0 100-1.333.667.667 0 000 1.333zm4 0a.667.667 0 100-1.333.667.667 0 000 1.333z" fill="#FCFCFC"/></svg>